<?xml version="1.0" encoding="UTF-8" standalone="no"?>
<!DOCTYPE svg PUBLIC "-//W3C//DTD SVG 1.1//EN" "http://www.w3.org/Graphics/SVG/1.1/DTD/svg11.dtd">
<svg width="100%" height="100%" viewBox="0 0 2005 1928" version="1.1" xmlns="http://www.w3.org/2000/svg" xmlns:xlink="http://www.w3.org/1999/xlink" xml:space="preserve" xmlns:serif="http://www.serif.com/" style="fill-rule:evenodd;clip-rule:evenodd;stroke-linejoin:round;stroke-miterlimit:2;">
    <g transform="matrix(1,0,0,1,-393.34,-57.221)">
        <g transform="matrix(6.02236,0,0,6.02236,-1975.5,-7762.62)">
            <path d="M690.139,1607.53L720.614,1607.53C723.649,1607.53 726.114,1609.99 726.114,1613.03C726.114,1616.06 723.649,1618.53 720.614,1618.53L398.84,1618.53C395.805,1618.53 393.34,1616.06 393.34,1613.03C393.34,1609.99 395.805,1607.53 398.84,1607.53L429.708,1607.53C429.033,1605.34 428.669,1603.02 428.669,1600.62L428.669,1460.56C425.398,1462.43 421.155,1461.72 418.687,1458.71L400.622,1436.68C397.87,1433.33 398.36,1428.37 401.717,1425.61L554.606,1300.25C557.16,1298.16 560.642,1297.94 563.358,1299.43C564.021,1299.71 564.655,1300.09 565.24,1300.57L637.771,1360.05L637.771,1330.37C637.771,1325.96 641.351,1322.38 645.762,1322.38L675.761,1322.38C680.171,1322.38 683.752,1325.96 683.752,1330.37C683.752,1330.37 683.752,1397.75 683.752,1397.75L717.737,1425.61C721.094,1428.37 721.584,1433.33 718.832,1436.68L700.767,1458.71C698.397,1461.61 694.388,1462.37 691.177,1460.77L691.177,1600.62C691.177,1603.02 690.813,1605.34 690.139,1607.53ZM678.074,1607.53C679.402,1605.55 680.177,1603.17 680.177,1600.62L680.177,1452L559.727,1353.24L439.669,1451.68L439.669,1600.62C439.669,1603.17 440.444,1605.55 441.772,1607.53L678.074,1607.53ZM618.305,1437C626.398,1437 632.969,1443.57 632.969,1451.66L632.969,1562.02C632.969,1570.11 626.398,1576.68 618.305,1576.68L501.345,1576.68C493.252,1576.68 486.681,1570.11 486.681,1562.02L486.681,1451.66C486.681,1443.57 493.252,1437 501.345,1437L618.305,1437ZM621.969,1513.83C615.017,1513.83 591.625,1513.81 566.821,1513.78L566.821,1565.68L618.305,1565.68C620.327,1565.68 621.969,1564.04 621.969,1562.02L621.969,1513.83ZM566.821,1448L566.821,1499.9C591.625,1499.87 615.017,1499.85 621.969,1499.84L621.969,1451.66C621.969,1449.64 620.327,1448 618.305,1448L566.821,1448ZM552.829,1565.68L552.829,1513.76C529.581,1513.73 507.564,1513.7 499.151,1513.65C498.606,1513.65 498.116,1513.65 497.681,1513.65L497.681,1562.02C497.681,1564.04 499.323,1565.68 501.345,1565.68L552.829,1565.68ZM512.514,1551.15C510.366,1553.29 506.881,1553.29 504.736,1551.14C502.591,1548.99 502.594,1545.51 504.742,1543.36L520.447,1527.68C522.595,1525.54 526.08,1525.54 528.225,1527.69C530.37,1529.83 530.367,1533.32 528.219,1535.46L512.514,1551.15ZM521.924,1560.57C519.776,1562.71 516.291,1562.71 514.146,1560.56C512.001,1558.42 512.003,1554.93 514.151,1552.79L538.827,1528.14C540.975,1526 544.46,1526 546.605,1528.15C548.75,1530.3 548.748,1533.78 546.6,1535.93L521.924,1560.57ZM497.681,1500.03C498.116,1500.03 498.606,1500.02 499.151,1500.02C507.564,1499.98 529.581,1499.94 552.829,1499.91L552.829,1448L501.345,1448C499.323,1448 497.681,1449.64 497.681,1451.66L497.681,1500.03ZM411.116,1432.13L425.205,1449.32L556.24,1341.87C558.267,1340.21 561.187,1340.21 563.214,1341.87L694.248,1449.32L708.338,1432.13L674.765,1404.6C673.491,1403.56 672.752,1402 672.752,1400.35L672.752,1333.38L648.771,1333.38L648.771,1371.67C648.771,1373.79 647.545,1375.73 645.623,1376.64C643.701,1377.55 641.428,1377.27 639.783,1375.92L559.727,1310.28L411.116,1432.13Z" style="fill:rgb(133,143,56);"/>
        </g>
    </g>
</svg>
