<svg width="124" height="120" viewBox="0 0 124 120" fill="none" xmlns="http://www.w3.org/2000/svg">
<path fill-rule="evenodd" clip-rule="evenodd" d="M110.351 114.982H121.682C122.81 114.982 123.727 115.897 123.727 117.027C123.727 118.153 122.81 119.072 121.682 119.072H2.04492C0.916497 119.072 0 118.153 0 117.027C0 115.897 0.916497 114.982 2.04492 114.982H13.5218C13.2708 114.168 13.1355 113.305 13.1355 112.413V60.3379C11.9193 61.0331 10.3417 60.7691 9.42413 59.65L2.70748 51.4592C1.68428 50.2136 1.86646 48.3695 3.11461 47.3433L59.9594 0.733906C60.909 -0.0431648 62.2036 -0.124942 63.2134 0.429047C63.4599 0.533152 63.6956 0.674397 63.9132 0.852863L90.8805 22.9678V11.9326C90.8805 10.293 92.2116 8.96194 93.8516 8.96194H105.005C106.645 8.96194 107.976 10.293 107.976 11.9326V36.9848L120.612 47.3433C121.86 48.3695 122.043 50.2136 121.019 51.4592L114.303 59.65C113.422 60.7282 111.931 61.0108 110.737 60.4159V112.413C110.737 113.305 110.602 114.168 110.351 114.982ZM105.865 114.982C106.359 114.246 106.647 113.361 106.647 112.413V57.1552L61.8634 20.4358L17.2253 57.0362V112.413C17.2253 113.361 17.5135 114.246 18.0072 114.982H105.865ZM83.6429 51.5781C86.652 51.5781 89.0951 54.0209 89.0951 57.0288V98.0611C89.0951 101.069 86.652 103.512 83.6429 103.512H40.1567C37.1477 103.512 34.7046 101.069 34.7046 98.0611V57.0288C34.7046 54.0209 37.1477 51.5781 40.1567 51.5781H83.6429ZM85.0052 80.1438C82.4205 80.1438 73.7232 80.1364 64.501 80.1253V99.4219H83.6429C84.3947 99.4219 85.0052 98.8122 85.0052 98.0611V80.1438ZM64.501 55.668V74.9646C73.7232 74.9535 82.4205 74.946 85.0052 74.9423V57.0288C85.0052 56.2778 84.3947 55.668 83.6429 55.668H64.501ZM59.2987 99.4219V80.1178C50.655 80.1067 42.469 80.0955 39.341 80.0769C39.1384 80.0769 38.9562 80.0769 38.7944 80.0769V98.0611C38.7944 98.8122 39.4049 99.4219 40.1567 99.4219H59.2987ZM44.3094 94.0196C43.5108 94.8153 42.215 94.8153 41.4175 94.0159C40.62 93.2165 40.6211 91.9226 41.4197 91.1232L47.2589 85.2934C48.0576 84.4977 49.3533 84.4977 50.1508 85.2971C50.9483 86.0927 50.9472 87.3903 50.1486 88.186L44.3094 94.0196ZM47.8081 97.522C47.0094 98.3176 45.7137 98.3177 44.9162 97.5183C44.1187 96.7226 44.1194 95.425 44.918 94.6294L54.0927 85.4644C54.8913 84.6687 56.1871 84.6687 56.9846 85.4681C57.7821 86.2675 57.7813 87.5614 56.9827 88.3608L47.8081 97.522ZM38.7944 75.013C38.9562 75.013 39.1384 75.0093 39.341 75.0093C42.469 74.9944 50.655 74.9795 59.2987 74.9684V55.668H40.1567C39.4049 55.668 38.7944 56.2778 38.7944 57.0288V75.013ZM6.60919 49.7675L11.8475 56.1587L60.5669 16.2084C61.3206 15.5912 62.4062 15.5912 63.1599 16.2084L111.879 56.1587L117.118 49.7675L104.635 39.5317C104.161 39.145 103.887 38.565 103.887 37.9515V13.0518H94.9703V27.2882C94.9703 28.0764 94.5145 28.7977 93.7999 29.136C93.0853 29.4744 92.2402 29.3703 91.6286 28.8684L61.8634 4.46311L6.60919 49.7675Z" fill="#858F38"/>
</svg>
