<?xml version="1.0" encoding="UTF-8" standalone="no"?>
<!DOCTYPE svg PUBLIC "-//W3C//DTD SVG 1.1//EN" "http://www.w3.org/Graphics/SVG/1.1/DTD/svg11.dtd">
<svg width="100%" height="100%" viewBox="0 0 2303 1670" version="1.1" xmlns="http://www.w3.org/2000/svg" xmlns:xlink="http://www.w3.org/1999/xlink" xml:space="preserve" xmlns:serif="http://www.serif.com/" style="fill-rule:evenodd;clip-rule:evenodd;stroke-linecap:round;stroke-linejoin:round;stroke-miterlimit:1.5;">
    <g transform="matrix(6.94444,0,0,6.94444,-1740.23,-5973.9)">
        <g transform="matrix(1,0,0,1,-1095.43,466.25)">
            <g transform="matrix(1.05253,0,0,0.995964,-74.4737,1.74908)">
                <path d="M1659.4,415.759L1659.4,613.305C1659.4,622.359 1652.45,629.709 1643.88,629.709L1370.34,629.709C1361.78,629.709 1354.82,622.359 1354.82,613.305L1354.82,415.759C1354.82,406.706 1361.78,399.355 1370.34,399.355L1643.88,399.355C1652.45,399.355 1659.4,406.706 1659.4,415.759Z" style="fill:rgb(235,235,235);fill-opacity:0;stroke:rgb(133,143,56);stroke-width:10.74px;"/>
            </g>
            <g transform="matrix(1.21878,0,0,1.21878,-326.67,-104.514)">
                <circle cx="1508.46" cy="498.558" r="29.164" style="fill:rgb(235,235,235);fill-opacity:0;stroke:rgb(133,143,56);stroke-width:9.03px;"/>
            </g>
            <g transform="matrix(1,0,0,1,-2.37124,-0.252957)">
                <path d="M1514.18,488.149C1505.78,488.149 1498.96,494.964 1498.96,503.37C1498.96,511.77 1505.78,518.59 1514.18,518.59C1522.59,518.59 1529.4,511.776 1529.4,503.37C1529.4,511.776 1522.59,518.59 1514.18,518.59C1505.78,518.59 1498.96,511.77 1498.96,503.37C1498.96,494.964 1505.78,488.149 1514.18,488.149Z" style="fill:rgb(235,235,235);fill-opacity:0;stroke:rgb(133,143,56);stroke-width:11px;"/>
            </g>
            <path d="M1351.52,443.189L1461.07,486.39" style="fill:none;stroke:rgb(133,143,56);stroke-width:11px;"/>
            <g transform="matrix(-1,0,0,1,3023.62,0)">
                <path d="M1351.52,443.189L1461.07,486.39" style="fill:none;stroke:rgb(133,143,56);stroke-width:11px;"/>
            </g>
            <path d="M1579.51,570.218L1637.48,570.155" style="fill:none;stroke:rgb(133,143,56);stroke-width:11px;"/>
            <g transform="matrix(0.652367,0.000378444,0.000378444,1,548.875,22.8213)">
                <path d="M1579.51,570.218L1637.48,570.155" style="fill:none;stroke:rgb(133,143,56);stroke-width:13.02px;"/>
            </g>
        </g>
    </g>
</svg>
