<svg width="124" height="91" viewBox="0 0 124 91" fill="none" xmlns="http://www.w3.org/2000/svg">
<path fill-rule="evenodd" clip-rule="evenodd" d="M0 18.4683C0 18.4433 0 18.418 0 18.393V8.1817C0 3.6662 3.65637 0 8.16288 0H115.823C120.33 0 123.99 3.6662 123.99 8.1817V18.393C123.99 18.418 123.99 18.4433 123.99 18.4683V81.8961C123.99 86.412 120.33 90.0782 115.823 90.0782H8.16288C3.65637 90.0782 0 86.412 0 81.8961V18.4683ZM119.877 17.0295V8.1817C119.877 5.94056 118.059 4.12144 115.823 4.12144H8.16288C5.92733 4.12144 4.11296 5.94056 4.11296 8.1817V17.0295L43.7741 32.7011C44.8289 33.1182 45.3485 34.3161 44.9313 35.3739C44.5141 36.4318 43.3176 36.9524 42.2628 36.5348L4.11296 21.4599V81.8961C4.11296 84.1373 5.92733 85.9568 8.16288 85.9568H115.823C118.059 85.9568 119.877 84.1373 119.877 81.8961V21.4599L81.7233 36.5348C80.6685 36.9524 79.472 36.4318 79.0587 35.3739C78.6415 34.3161 79.1611 33.1182 80.2159 32.7011L119.877 17.0295ZM87.3121 76.8601C86.1786 76.8612 85.2537 75.9388 85.2537 74.8018C85.2537 73.6644 86.1747 72.7401 87.3082 72.7386L101.45 72.7234C102.583 72.7222 103.508 73.6443 103.508 74.7816C103.508 75.919 102.591 76.8433 101.454 76.8444L87.3121 76.8601ZM61.993 25.5067C70.4629 25.5067 77.3427 32.3973 77.3427 40.8846C77.3427 49.3719 70.4629 56.2629 61.993 56.2629C53.5232 56.2629 46.6473 49.3719 46.6473 40.8846C46.6473 32.3973 53.5232 25.5067 61.993 25.5067ZM61.993 29.6282C55.7941 29.6282 50.7602 34.672 50.7602 40.8846C50.7602 47.0976 55.7941 52.1415 61.993 52.1415C68.1959 52.1415 73.2298 47.0976 73.2298 40.8846C73.2298 34.672 68.1959 29.6282 61.993 29.6282ZM61.993 33.1216C61.993 33.1216 64.9606 32.994 64.7599 35.4251C64.6143 37.2143 61.993 37.2427 61.993 37.2427C59.9858 37.2427 58.3603 38.8733 58.3603 40.8846C58.3603 42.8948 59.9897 44.5266 61.993 44.5266C64.0003 44.5266 65.6297 42.8963 65.6297 40.8846C65.6297 40.8846 65.6258 38.57 67.6842 38.57C69.7466 38.57 69.7427 40.8846 69.7427 40.8846C69.7427 45.1721 66.2752 48.648 61.993 48.648C57.7187 48.648 54.2474 45.1695 54.2474 40.8846C54.2474 36.5971 57.7148 33.1216 61.993 33.1216ZM87.3121 68.0858C86.1786 68.0869 85.2537 67.1649 85.2537 66.0275C85.2537 64.8902 86.1747 63.9659 87.3082 63.9644L108.987 63.9409C110.12 63.9398 111.041 64.8622 111.045 65.9992C111.045 67.1365 110.124 68.0608 108.991 68.0623L87.3121 68.0858Z" fill="#858F38"/>
</svg>
