<?xml version="1.0" encoding="UTF-8" standalone="no"?>
<!DOCTYPE svg PUBLIC "-//W3C//DTD SVG 1.1//EN" "http://www.w3.org/Graphics/SVG/1.1/DTD/svg11.dtd">
<svg width="100%" height="100%" viewBox="0 0 15079 19441" version="1.1" xmlns="http://www.w3.org/2000/svg" xmlns:xlink="http://www.w3.org/1999/xlink" xml:space="preserve" xmlns:serif="http://www.serif.com/" style="fill-rule:evenodd;clip-rule:evenodd;stroke-linejoin:round;stroke-miterlimit:2;">
    <g transform="matrix(3.33333,0,0,3.33333,-9015.64,-23891.2)">
        <g transform="matrix(1.45807,0,0,1.45807,305.671,1662.01)">
            <g transform="matrix(0.106914,0,0,0.119198,951.097,5769.1)">
                <path d="M8565.21,16633.3L9252.59,16633.3C9278.3,16633.3 9300.04,16641.8 9317.81,16658.8C9335.58,16675.8 9344.47,16697.2 9344.47,16722.9C9344.47,16748.6 9335.58,16769.8 9317.81,16786.4C9300.04,16803.1 9278.3,16811.4 9252.59,16811.4L8467.66,16811.4C8441.19,16811.4 8419.26,16802.5 8401.87,16784.7C8384.48,16767 8375.78,16745.2 8375.78,16719.5L8375.78,15315.2C8375.78,15289.5 8384.85,15267.8 8403,15250C8421.15,15232.3 8444.22,15223.4 8472.2,15223.4C8497.15,15223.4 8518.89,15232.3 8537.42,15250C8555.94,15267.8 8565.21,15289.5 8565.21,15315.2L8565.21,16633.3ZM11133.3,16511.9L11631.2,15278.9C11649.4,15240.4 11677.3,15221.1 11715.1,15221.1C11741.6,15221.1 11763.7,15229.2 11781.5,15245.5C11799.3,15261.7 11808.2,15282.4 11808.2,15307.3C11808.2,15320.2 11805.1,15334.1 11799.1,15349.3L11208.1,16752.4C11199,16772.1 11186.4,16786.8 11170.1,16796.6C11153.9,16806.5 11137,16811.4 11119.6,16811.4C11103,16810.6 11086.9,16805.3 11071.4,16795.5C11055.9,16785.7 11044.4,16771.7 11036.8,16753.5L10448.1,15351.5C10445.1,15345.5 10442.8,15338.9 10441.3,15331.7C10439.8,15324.5 10439.1,15317.1 10439.1,15309.6C10439.1,15281.6 10449.3,15259.7 10469.7,15243.8C10490.1,15227.9 10510.1,15220 10529.8,15220C10569.9,15220 10599,15240.8 10617.1,15282.4L11133.3,16511.9ZM13230.6,15557.9L13230.6,16728.6C13230.6,16752 13222.6,16771.7 13206.7,16787.6C13190.9,16803.4 13170.4,16811.4 13145.5,16811.4C13120.5,16811.4 13100.5,16803.4 13085.4,16787.6C13070.2,16771.7 13062.7,16752 13062.7,16728.6L13062.7,15315.2C13062.7,15287.3 13071.6,15265 13089.3,15248.3C13107.1,15231.7 13128.1,15223.4 13152.3,15223.4C13165.9,15223.4 13179.9,15226 13194.3,15231.3C13208.6,15236.6 13219.6,15244.9 13227.2,15256.3L14155,16484.6L14155,15308.4C14155,15284.2 14163,15264 14178.8,15247.8C14194.7,15231.5 14214.8,15223.4 14239,15223.4C14263.9,15223.4 14283.9,15231.5 14299.1,15247.8C14314.2,15264 14321.8,15284.2 14321.8,15308.4L14321.8,16717.2C14321.8,16745.2 14312.7,16767.9 14294.5,16785.3C14276.4,16802.7 14254.5,16811.4 14228.7,16811.4C14215.9,16811.4 14202.7,16808.9 14189,16804C14175.4,16799.1 14164.8,16792.1 14157.3,16783L13230.6,15557.9ZM15994.8,16172.8L15684,16172.8C15658.3,16172.8 15636.6,16164.1 15618.8,16146.7C15601.1,16129.3 15592.2,16107.7 15592.2,16082C15592.2,16055.6 15601.1,16033.8 15618.8,16016.8C15636.6,15999.8 15658.3,15991.3 15684,15991.3L16096.9,15991.3C16123.4,15991.3 16145.1,16000.2 16162.1,16017.9C16179.2,16035.7 16187.7,16057.5 16187.7,16083.2L16187.7,16608.3C16187.7,16626.5 16183.3,16642.4 16174.6,16656C16165.9,16669.6 16155.2,16680.9 16142.3,16690C16074.2,16733.9 15999,16768.8 15916.6,16794.9C15834.1,16821 15748.3,16834.1 15659.1,16834.1C15542.6,16834.1 15434.7,16813.5 15335.2,16772.2C15235.8,16731 15148.8,16673.4 15074.4,16599.3C14999.9,16525.2 14941.8,16438.6 14900.2,16339.5C14858.7,16240.5 14837.9,16133.1 14837.9,16017.4C14837.9,15901.7 14858.7,15794.3 14900.2,15695.2C14941.8,15596.2 14999.9,15509.6 15074.4,15435.5C15148.8,15361.4 15235.8,15303.7 15335.2,15262.5C15434.7,15221.3 15542.6,15200.7 15659.1,15200.7C15736.2,15200.7 15810.7,15209.6 15882.5,15227.3C15954.4,15245.1 16019.4,15271.8 16077.6,15307.3C16092.8,15315.6 16103.9,15326.6 16111.1,15340.2C16118.3,15353.8 16121.9,15367.8 16121.9,15382.2C16121.9,15407.9 16113.2,15429.8 16095.8,15448C16078.4,15466.1 16058.4,15475.2 16035.7,15475.2C16026.6,15475.2 16017.7,15473.9 16009,15471.2C16000.3,15468.6 15991.8,15465.3 15983.5,15461.6C15936.6,15437.4 15885.9,15418.1 15831.5,15403.7C15777.1,15389.4 15719.6,15382.2 15659.1,15382.2C15539.6,15382.2 15432.6,15410.1 15338.1,15466.1C15243.6,15522.1 15169.1,15597.9 15114.6,15693.5C15060.2,15789.2 15033,15897.1 15033,16017.4C15033,16136.9 15060.2,16244.8 15114.6,16341.2C15169.1,16437.6 15243.6,16513.6 15338.1,16569.2C15432.6,16624.8 15539.6,16652.6 15659.1,16652.6C15719.6,16652.6 15781.8,16644.4 15845.7,16628.2C15902.8,16613.7 15952.5,16595 15994.8,16572.3C15994.8,16572.3 15999.9,16569.7 15994.8,16572.3L15994.8,16172.8ZM19379.6,16044L18883.9,15374.2C18874.8,15362.1 18868.4,15350.4 18864.6,15339.1C18860.8,15327.7 18858.9,15316.8 18858.9,15306.2C18858.9,15279.7 18869.5,15258 18890.7,15240.9C18911.9,15223.9 18933.4,15215.4 18955.4,15215.4C18984.8,15215.4 19009.8,15229.4 19030.2,15257.4L19475.5,15868.3L19907,15259.7C19927.4,15230.2 19952.8,15215.4 19983,15215.4C20008,15215.4 20029.3,15224.7 20047.1,15243.2C20064.9,15261.7 20073.8,15283.1 20073.8,15307.3C20073.8,15317.1 20072.4,15326.8 20069.8,15336.2C20067.1,15345.7 20062.8,15354.9 20056.8,15364L19561.1,16055.2L19561.1,16719.5C19561.1,16745.2 19552.2,16767 19534.4,16784.7C19516.6,16802.5 19495.7,16811.4 19471.5,16811.4C19445,16811.4 19423.1,16802.5 19405.7,16784.7C19388.3,16767 19379.6,16745.2 19379.6,16719.5L19379.6,16044ZM31902.1,14786.1C31721.6,14786.8 31558.4,14789.9 31412.4,14795.5C31245.9,14801.8 31105,14811.2 30989.8,14823.9C30855.3,14836.5 30740,14849.1 30644,14861.7C30650.4,14817.6 30656.8,14767.1 30663.2,14710.3C30669.6,14659.8 30674.4,14603 30677.6,14539.9C30680.8,14476.7 30682.4,14407.3 30682.4,14331.6C30202.1,14634.5 29744.3,14804.9 29308.9,14842.8C28873.4,14880.7 28490.8,14828.6 28161,14686.6C27831.3,14544.6 27565.5,14333.1 27363.8,14052.3C27162.1,13771.4 27051.7,13466.9 27032.4,13138.7C26994,12387.6 27104.5,11770.7 27363.8,11287.8C27623.2,10805 28095.4,10468.9 28780.6,10279.6C29145.6,10172.3 29475.3,10118.6 29769.9,10118.6C30064.5,10118.6 30320.6,10143.9 30538.3,10194.4C30794.4,10251.2 31021.8,10330.1 31220.3,10431C31290.7,10386.9 31364.4,10342.7 31441.2,10298.5C31511.6,10260.6 31588.5,10218 31671.7,10170.7C31755,10123.4 31841.4,10077.6 31931.1,10033.4C31783.8,10121.8 31676.5,10249.6 31609.3,10416.8C31542,10584.1 31495.6,10773.4 31470,10984.9C31444.4,11196.3 31434.8,11420.4 31441.2,11657.1C31447.6,11893.7 31454,12122.5 31460.4,12343.4C31466.8,12494.9 31470,12662.2 31470,12845.2C31470,13028.2 31473.2,13212.9 31479.6,13399C31486,13585.2 31498.8,13763.5 31518,13933.9C31537.2,14104.4 31564.5,14254.3 31599.7,14383.6C31634.9,14513 31682.9,14615.6 31743.8,14691.3C31787.4,14745.7 31840.2,14777.3 31902.1,14786.1ZM31902.1,14786.1C31927.4,14786 31953.1,14786 31979.1,14786C31952,14789.6 31926.3,14789.6 31902.1,14786.1ZM28934.3,10326.9C28825.4,10371.1 28711.7,10454.7 28593.3,10577.8C28474.8,10700.9 28367.6,10860.2 28271.5,11055.9C28175.5,11251.5 28100.2,11481.9 28045.8,11747C27991.4,12012.1 27973.7,12308.7 27993,12636.9C28025,13034.6 28116.2,13365.9 28266.7,13631C28417.2,13896.1 28591.7,14102.8 28790.2,14251.1C28988.7,14399.4 29196.8,14492.5 29414.5,14530.4C29632.2,14568.3 29827.5,14555.6 30000.4,14492.5C30230.9,14416.8 30397.4,14311.1 30499.9,14175.4C30602.3,14039.7 30669.6,13840.8 30701.6,13578.9C30733.6,13317 30743.2,12979.3 30730.4,12565.9C30717.6,12152.5 30711.2,11633.4 30711.2,11008.5C30628,10800.3 30504.7,10642.5 30341.4,10535.2C30178.1,10427.9 30006.8,10353.7 29827.5,10312.7C29648.2,10271.7 29475.3,10257.5 29308.9,10270.1C29142.4,10282.7 29017.5,10301.7 28934.3,10326.9ZM31121.8,15396.9L30690.8,15396.9C30665.1,15396.9 30643.3,15388.8 30625.5,15372.5C30607.8,15356.3 30598.9,15335.3 30598.9,15309.6C30598.9,15283.9 30607.8,15263.1 30625.5,15247.2C30643.3,15231.3 30665.1,15223.4 30690.8,15223.4L31745.7,15223.4C31771.4,15223.4 31793.1,15231.5 31810.9,15247.8C31828.7,15264 31837.5,15285 31837.5,15310.7C31837.5,15337.2 31828.7,15358.2 31810.9,15373.7C31793.1,15389.2 31771.4,15396.9 31745.7,15396.9L31314.6,15396.9L31314.6,16719.5C31314.6,16745.2 31305.4,16767 31286.8,16784.7C31268.3,16802.5 31245.1,16811.4 31217.1,16811.4C31189.1,16811.4 31166.2,16802.5 31148.5,16784.7C31130.7,16767 31121.8,16745.2 31121.8,16719.5L31121.8,15396.9ZM23669.5,16635.6L24379.5,16635.6C24405.3,16635.6 24427,16644.4 24444.8,16662.2C24462.5,16680 24471.4,16700.6 24471.4,16724C24471.4,16749.7 24462.5,16770.7 24444.8,16787C24427,16803.2 24405.3,16811.4 24379.5,16811.4L23571.9,16811.4C23546.2,16811.4 23524.5,16802.5 23506.7,16784.7C23488.9,16767 23480.1,16745.2 23480.1,16719.5L23480.1,15315.2C23480.1,15289.5 23488.9,15267.8 23506.7,15250C23524.5,15232.3 23546.2,15223.4 23571.9,15223.4L24379.5,15223.4C24405.3,15223.4 24427,15231.9 24444.8,15248.9C24462.5,15265.9 24471.4,15287.3 24471.4,15313C24471.4,15338.7 24462.5,15359.5 24444.8,15375.4C24427,15391.2 24405.3,15399.2 24379.5,15399.2L23669.5,15399.2L23669.5,15908.5L24277.5,15908.5C24303.2,15908.5 24324.9,15917 24342.7,15934C24360.5,15951 24369.3,15972.4 24369.3,15998.1C24369.3,16023.8 24360.5,16044.6 24342.7,16060.5C24324.9,16076.4 24303.2,16084.3 24277.5,16084.3L23669.5,16084.3L23669.5,16635.6ZM25169,15572.3L25169,16719.5C25169,16745.2 25160.7,16767 25144.1,16784.7C25127.4,16802.5 25106.3,16811.4 25080.5,16811.4C25054.8,16811.4 25033.8,16802.5 25017.6,16784.7C25001.3,16767 24993.2,16745.2 24993.2,16719.5L24993.2,15314.1C24993.2,15289.9 25002.1,15268.5 25019.9,15250C25037.6,15231.5 25059.7,15222.2 25086.2,15222.2C25100.6,15222.2 25115.5,15225.8 25131,15233C25146.5,15240.2 25158.8,15250.2 25167.9,15263.1L25728.9,16110.9L26297.6,15263.1C26318.1,15234.3 26343.8,15220.7 26374.8,15222.2C26399,15223 26420.1,15231.9 26438.3,15248.9C26456.4,15265.9 26465.5,15287.6 26465.5,15314.1L26465.5,16719.5C26465.5,16745.2 26456.6,16767 26438.9,16784.7C26421.1,16802.5 26398.6,16811.4 26371.4,16811.4C26343.4,16811.4 26320.5,16802.5 26302.7,16784.7C26285,16767 26276.1,16745.2 26276.1,16719.5L26276.1,15584L25796.3,16312.3C25788,16323.6 25777.4,16333.1 25764.5,16340.6C25751.7,16348.2 25738.1,16351.6 25723.7,16350.9C25710.1,16351.6 25696.5,16348.2 25682.9,16340.6C25669.2,16333.1 25658.3,16323.6 25650,16312.3L25169,15572.3ZM29604.1,16633.3L30291.5,16633.3C30317.2,16633.3 30338.9,16641.8 30356.7,16658.8C30374.5,16675.8 30383.4,16697.2 30383.4,16722.9C30383.4,16748.6 30374.5,16769.8 30356.7,16786.4C30338.9,16803.1 30317.2,16811.4 30291.5,16811.4L29506.6,16811.4C29480.1,16811.4 29458.2,16802.5 29440.8,16784.7C29423.4,16767 29414.7,16745.2 29414.7,16719.5L29414.7,15315.2C29414.7,15289.5 29423.8,15267.8 29441.9,15250C29460.1,15232.3 29483.1,15223.4 29511.1,15223.4C29536.1,15223.4 29557.8,15232.3 29576.3,15250C29594.8,15267.8 29604.1,15289.5 29604.1,15315.2L29604.1,16633.3ZM9976.27,16718.4C9975.51,16744.8 9965.68,16767 9946.78,16784.7C9927.88,16802.5 9905.94,16811.4 9880.99,16811.4C9852.26,16811.4 9829.38,16802.5 9812.37,16784.7C9795.35,16767 9786.84,16744.8 9786.84,16718.4L9786.84,15316.4C9786.84,15289.9 9795.92,15267.8 9814.07,15250C9832.22,15232.3 9855.28,15223.4 9883.26,15223.4C9908.21,15223.4 9929.95,15232.3 9948.48,15250C9967.01,15267.8 9976.27,15289.9 9976.27,15316.4L9976.27,16718.4ZM12476.3,16718.4C12475.5,16744.8 12465.7,16767 12446.8,16784.7C12427.9,16802.5 12405.9,16811.4 12381,16811.4C12352.2,16811.4 12329.4,16802.5 12312.4,16784.7C12295.3,16767 12286.8,16744.8 12286.8,16718.4L12286.8,15316.4C12286.8,15289.9 12295.9,15267.8 12314.1,15250C12332.2,15232.3 12355.3,15223.4 12383.2,15223.4C12408.2,15223.4 12429.9,15232.3 12448.5,15250C12467,15267.8 12476.3,15289.9 12476.3,15316.4L12476.3,16718.4ZM18037.7,16834.1C17925.8,16834.8 17827.5,16818.4 17742.8,16784.7C17658.1,16751.1 17576.8,16698 17498.9,16625.4C17487.6,16615.5 17478.5,16604 17471.7,16590.8C17464.9,16577.5 17461.5,16563.3 17461.5,16548.2C17461.5,16524.8 17470.4,16503.6 17488.1,16484.7C17505.9,16465.8 17527.3,16456.3 17552.2,16456.3C17573.4,16456.3 17592.7,16464.3 17610.1,16480.2C17669.1,16538.4 17733,16582.6 17801.8,16612.9C17870.6,16643.1 17947.7,16658.2 18033.2,16658.2C18099.7,16658.2 18159.8,16647.7 18213.5,16626.5C18267.2,16605.3 18309.9,16575.8 18341.7,16538C18373.5,16500.2 18389.3,16456.3 18389.3,16406.4C18388.6,16345.2 18371.2,16294.9 18337.2,16255.6C18303.1,16216.3 18256.1,16183.5 18195.9,16157.5C18135.8,16131.4 18066.4,16108.9 17987.8,16090C17919,16073.3 17855.5,16053.1 17797.2,16029.3C17739,16005.5 17688.5,15975.8 17645.8,15940.2C17603.1,15904.7 17570,15861.6 17546.6,15810.9C17523.1,15760.3 17511.4,15700.5 17511.4,15631.7C17511.4,15545.5 17534.1,15470.1 17579.5,15405.4C17624.8,15340.8 17687.8,15290.5 17768.3,15254.6C17848.8,15218.6 17940.9,15200.7 18044.5,15200.7C18136.8,15200.7 18224.3,15215.8 18307.1,15246.1C18389.9,15276.3 18456.3,15318.3 18506.2,15372C18535.7,15399.9 18550.4,15427.9 18550.4,15455.9C18550.4,15477.8 18541.1,15498.2 18522.6,15517.1C18504.1,15536.1 18482.7,15545.5 18458.5,15545.5C18441.1,15545.5 18426,15539.8 18413.2,15528.5C18387.4,15499.8 18354.7,15474 18315,15451.4C18275.3,15428.7 18232,15410.5 18185.2,15396.9C18138.3,15383.3 18091.4,15376.5 18044.5,15376.5C17974.9,15376.5 17913.9,15386.7 17861.3,15407.1C17808.8,15427.5 17767.7,15456.1 17738.3,15492.8C17708.8,15529.4 17694,15573.5 17694,15624.9C17694,15682.4 17710.7,15729.6 17743.9,15766.7C17777.2,15803.7 17821.8,15834 17877.8,15857.4C17933.7,15880.9 17995.4,15902.1 18062.7,15921C18136.8,15939.1 18205.2,15959.7 18268,15982.8C18330.7,16005.8 18385,16035 18430.7,16070.1C18476.5,16105.3 18511.8,16149.5 18536.8,16202.8C18561.8,16256.1 18574.2,16322.1 18574.2,16400.8C18574.2,16484.7 18550.6,16559.2 18503.3,16624.2C18456.1,16689.3 18392.2,16740.3 18311.6,16777.4C18231.1,16814.4 18139.8,16833.3 18037.7,16834.1ZM20889.3,16834.1C20777.4,16834.8 20679.1,16818.4 20594.4,16784.7C20509.7,16751.1 20428.4,16698 20350.5,16625.4C20339.2,16615.5 20330.1,16604 20323.3,16590.8C20316.5,16577.5 20313.1,16563.3 20313.1,16548.2C20313.1,16524.8 20322,16503.6 20339.8,16484.7C20357.5,16465.8 20378.9,16456.3 20403.8,16456.3C20425,16456.3 20444.3,16464.3 20461.7,16480.2C20520.7,16538.4 20584.6,16582.6 20653.4,16612.9C20722.2,16643.1 20799.3,16658.2 20884.8,16658.2C20951.3,16658.2 21011.4,16647.7 21065.1,16626.5C21118.8,16605.3 21161.6,16575.8 21193.3,16538C21225.1,16500.2 21241,16456.3 21241,16406.4C21240.2,16345.2 21222.8,16294.9 21188.8,16255.6C21154.7,16216.3 21107.7,16183.5 21047.6,16157.5C20987.4,16131.4 20918.1,16108.9 20839.4,16090C20770.6,16073.3 20707.1,16053.1 20648.9,16029.3C20590.6,16005.5 20540.2,15975.8 20497.4,15940.2C20454.7,15904.7 20421.6,15861.6 20398.2,15810.9C20374.7,15760.3 20363,15700.5 20363,15631.7C20363,15545.5 20385.7,15470.1 20431.1,15405.4C20476.4,15340.8 20539.4,15290.5 20619.9,15254.6C20700.5,15218.6 20792.5,15200.7 20896.1,15200.7C20988.4,15200.7 21075.9,15215.8 21158.7,15246.1C21241.5,15276.3 21307.9,15318.3 21357.8,15372C21387.3,15399.9 21402,15427.9 21402,15455.9C21402,15477.8 21392.8,15498.2 21374.2,15517.1C21355.7,15536.1 21334.3,15545.5 21310.1,15545.5C21292.8,15545.5 21277.6,15539.8 21264.8,15528.5C21239.1,15499.8 21206.4,15474 21166.7,15451.4C21127,15428.7 21083.7,15410.5 21036.8,15396.9C20989.9,15383.3 20943,15376.5 20896.1,15376.5C20826.6,15376.5 20765.5,15386.7 20712.9,15407.1C20660.4,15427.5 20619.4,15456.1 20589.9,15492.8C20560.4,15529.4 20545.6,15573.5 20545.6,15624.9C20545.6,15682.4 20562.3,15729.6 20595.5,15766.7C20628.8,15803.7 20673.4,15834 20729.4,15857.4C20785.3,15880.9 20847,15902.1 20914.3,15921C20988.4,15939.1 21056.8,15959.7 21119.6,15982.8C21182.4,16005.8 21236.6,16035 21282.4,16070.1C21328.1,16105.3 21363.5,16149.5 21388.4,16202.8C21413.4,16256.1 21425.8,16322.1 21425.8,16400.8C21425.8,16484.7 21402.2,16559.2 21355,16624.2C21307.7,16689.3 21243.8,16740.3 21163.3,16777.4C21082.7,16814.4 20991.4,16833.3 20889.3,16834.1ZM27563.5,16834.1C27451.6,16834.8 27353.3,16818.4 27268.6,16784.7C27183.9,16751.1 27102.6,16698 27024.7,16625.4C27013.4,16615.5 27004.3,16604 26997.5,16590.8C26990.7,16577.5 26987.3,16563.3 26987.3,16548.2C26987.3,16524.8 26996.2,16503.6 27013.9,16484.7C27031.7,16465.8 27053.1,16456.3 27078,16456.3C27099.2,16456.3 27118.5,16464.3 27135.9,16480.2C27194.9,16538.4 27258.8,16582.6 27327.6,16612.9C27396.4,16643.1 27473.5,16658.2 27559,16658.2C27625.5,16658.2 27685.6,16647.7 27739.3,16626.5C27793,16605.3 27835.7,16575.8 27867.5,16538C27899.3,16500.2 27915.1,16456.3 27915.1,16406.4C27914.4,16345.2 27897,16294.9 27863,16255.6C27828.9,16216.3 27781.9,16183.5 27721.7,16157.5C27661.6,16131.4 27592.3,16108.9 27513.6,16090C27444.8,16073.3 27381.3,16053.1 27323,16029.3C27264.8,16005.5 27214.3,15975.8 27171.6,15940.2C27128.9,15904.7 27095.8,15861.6 27072.4,15810.9C27048.9,15760.3 27037.2,15700.5 27037.2,15631.7C27037.2,15545.5 27059.9,15470.1 27105.3,15405.4C27150.6,15340.8 27213.6,15290.5 27294.1,15254.6C27374.7,15218.6 27466.7,15200.7 27570.3,15200.7C27662.6,15200.7 27750.1,15215.8 27832.9,15246.1C27915.7,15276.3 27982.1,15318.3 28032,15372C28061.5,15399.9 28076.2,15427.9 28076.2,15455.9C28076.2,15477.8 28067,15498.2 28048.4,15517.1C28029.9,15536.1 28008.5,15545.5 27984.3,15545.5C27966.9,15545.5 27951.8,15539.8 27939,15528.5C27913.3,15499.8 27880.6,15474 27840.9,15451.4C27801.2,15428.7 27757.9,15410.5 27711,15396.9C27664.1,15383.3 27617.2,15376.5 27570.3,15376.5C27500.8,15376.5 27439.7,15386.7 27387.1,15407.1C27334.6,15427.5 27293.6,15456.1 27264.1,15492.8C27234.6,15529.4 27219.8,15573.5 27219.8,15624.9C27219.8,15682.4 27236.5,15729.6 27269.7,15766.7C27303,15803.7 27347.6,15834 27403.6,15857.4C27459.5,15880.9 27521.2,15902.1 27588.5,15921C27662.6,15939.1 27731,15959.7 27793.8,15982.8C27856.5,16005.8 27910.8,16035 27956.5,16070.1C28002.3,16105.3 28037.7,16149.5 28062.6,16202.8C28087.6,16256.1 28100,16322.1 28100,16400.8C28100,16484.7 28076.4,16559.2 28029.1,16624.2C27981.9,16689.3 27918,16740.3 27837.4,16777.4C27756.9,16814.4 27665.6,16833.3 27563.5,16834.1ZM32960.5,15223.4C33071.7,15223.4 33169.2,15244.4 33253.1,15286.3C33337.1,15328.3 33407,15386.3 33463,15460.4C33518.9,15534.5 33560.7,15619.4 33588.3,15715.1C33615.9,15810.7 33629.7,15911.5 33629.7,16017.4C33629.7,16163.3 33605,16296.4 33555.4,16416.6C33505.9,16536.9 33431.8,16632.7 33333.1,16704.2C33234.4,16775.6 33110.2,16811.4 32960.5,16811.4L32394.5,16811.4C32368.8,16811.4 32347,16802.5 32329.3,16784.7C32311.5,16767 32302.6,16745.2 32302.6,16719.5L32302.6,15315.2C32302.6,15289.5 32311.5,15267.8 32329.3,15250C32347,15232.3 32368.8,15223.4 32394.5,15223.4L32960.5,15223.4ZM32492,15399.2L32492,16635.6L32937.8,16635.6C33055,16635.6 33150.1,16607.6 33223.1,16551.6C33296.1,16495.7 33349.6,16420.8 33383.6,16327C33417.6,16233.3 33434.6,16130 33434.6,16017.4C33434.6,15935.7 33425.2,15857.6 33406.3,15783.1C33387.4,15708.7 33357.9,15642.7 33317.8,15585.2C33277.7,15527.7 33226.3,15482.4 33163.5,15449.1C33100.8,15415.8 33025.5,15399.2 32937.8,15399.2L32492,15399.2ZM6521.67,8616.32C6521.67,8616.32 7147.95,8595.8 7448.12,8602.67C7826.45,8611.34 8229.03,8597.54 8465.95,8547.05C8446.74,8749.02 8432.33,9023.57 8422.73,9370.7C8413.12,9717.84 8406.72,10077.6 8403.52,10450C8400.32,10822.4 8395.51,11177.4 8389.11,11515C8382.71,11852.7 8376.31,12116.2 8369.9,12305.6C8722.09,12091 9035.86,11873.2 9311.2,11652.3C9586.55,11431.4 9810.67,11223.1 9983.56,11027.5C10086,10920.2 10122.8,10794 10094,10648.8C10065.2,10503.6 10002.8,10367.9 9906.72,10241.7C10278.1,10266.9 10612.7,10265.4 10910.5,10237C11208.2,10208.6 11475.6,10181.7 11712.5,10156.5C11571.6,10238.5 11397.1,10349 11189,10487.8C10980.9,10626.7 10768,10773.4 10550.3,10928.1C10332.5,11082.7 10122.8,11234.2 9921.13,11382.5C9719.42,11530.8 9551.33,11658.6 9416.86,11765.9C9500.1,11930 9600.96,12105.2 9719.42,12291.4C9837.88,12477.6 9962.75,12659 10094,12835.7C10225.3,13012.5 10351.8,13179.7 10473.4,13337.5C10595.1,13495.3 10700.7,13627.8 10790.4,13735.1C10924.9,13899.2 11040.1,14046 11136.2,14175.4C11232.2,14304.7 11325.1,14413.6 11414.7,14502C11504.4,14590.3 11597.2,14659.8 11693.3,14710.3C11789.3,14760.8 11911,14786 12058.3,14786L12058.3,14842.8C11917.4,14842.8 11768.5,14841.2 11611.6,14838.1C11454.7,14834.9 11304.3,14834.9 11160.2,14838.1C11016.1,14841.2 10886.4,14847.5 10771.2,14857C10655.9,14866.5 10566.3,14880.7 10502.2,14899.6C10239.7,14552.5 10014,14255.8 9825.08,14009.7C9636.18,13763.5 9469.69,13547.4 9325.61,13361.2C9181.53,13175 9048.66,13007.7 8927,12859.4C8805.33,12711.1 8683.67,12561.2 8562,12409.7L8379.51,12561.2C8385.91,12763.2 8392.31,12987.2 8398.72,13233.4C8405.12,13479.5 8411.52,13714.6 8417.93,13938.7C8424.33,14162.7 8437.14,14358.4 8456.35,14525.6C8475.56,14692.9 8504.37,14798.6 8542.79,14842.8L8254.64,14842.8C8152.19,14842.8 8051.33,14846 7952.08,14852.3C7852.83,14858.6 7569.2,14904.4 7398.76,14955.4C7054.28,15058.5 6538.24,15188.1 6493.42,15200.7C6531.84,15143.9 7256.3,14784 7394.76,14493.5C7487.72,14298.4 7591.89,14046 7591.89,13739.9C7591.89,13433.8 7590.29,13096.1 7587.08,12726.9C7583.88,12357.6 7579.08,11985.3 7572.68,11609.7C7566.27,11234.2 7563.07,10869.7 7563.07,10516.2C7563.07,10162.8 7552.9,9898.61 7463.5,9667.67C7380.51,9453.3 7221.27,9256.53 7026.66,9130.63C6705.96,8923.15 6521.67,8616.32 6521.67,8616.32ZM13361.1,9929.27C13329.1,10074.4 13305.1,10260.6 13289,10487.8C13273,10715.1 13263.4,10953.3 13260.2,11202.6C13257,11451.9 13255.4,11698.1 13255.4,11941.1L13255.4,12570.7L13231.4,13186C13221.8,13432.2 13221.8,13673.6 13231.4,13910.3C13241,14147 13263.4,14352.1 13298.6,14525.6C13333.9,14699.2 13389.9,14795.5 13466.7,14814.4C13217,14814.4 12999.3,14816 12813.6,14819.1C12627.9,14822.3 12435.8,14836.5 12237.3,14861.7C12269.3,14786 12296.5,14648.7 12318.9,14449.9C12341.3,14251.1 12357.3,14020.7 12367,13758.8C12376.6,13496.9 12383,13219.2 12386.2,12925.7C12389.4,12632.2 12391,12351.3 12391,12083.1C12391,11814.8 12387.8,11573.4 12381.4,11358.8C12375,11144.2 12365.4,10986.5 12352.5,10885.5C12237.3,10759.2 12128.4,10653.5 12026,10568.3C11923.5,10483.1 11805.1,10402.6 11670.6,10326.9C11977.9,10314.3 12272.5,10270.1 12554.3,10194.4C12836,10118.6 13104.9,10030.3 13361.1,9929.27ZM15598.2,10203.8C15886.4,10159.6 16168.2,10145.4 16443.5,10161.2C16718.8,10177 16973.4,10240.1 17207.1,10350.6C17440.8,10461 17648.9,10620.4 17831.4,10828.7C18013.9,11036.9 18156.4,11308.3 18258.9,11642.9C18361.3,11964.7 18394.9,12283.5 18359.7,12599.1C18324.5,12914.6 18236.5,13208.1 18095.6,13479.5C17954.7,13750.9 17765.8,13990.7 17528.9,14199C17292,14407.3 17019.8,14568.3 16712.4,14681.9C16405.1,14789.2 16078.5,14847.5 15732.7,14857C15386.9,14866.5 15062,14816 14757.8,14705.5C14453.6,14595.1 14189.5,14424.7 13965.4,14194.3C13741.3,13963.9 13597.2,13662.5 13533.1,13290.2C13462.7,12924.1 13448.3,12569.1 13489.9,12225.1C13531.5,11881.1 13634,11570.3 13797.3,11292.6C13960.6,11014.9 14191.1,10781.3 14488.9,10592C14786.6,10402.6 15156.4,10273.3 15598.2,10203.8ZM14474.5,12892.5C14532.1,13220.7 14637.7,13501.6 14791.4,13735.1C14945.1,13968.7 15122.8,14153.3 15324.5,14289C15526.2,14424.7 15743.9,14513 15977.7,14554.1C16211.4,14595.1 16437.1,14587.2 16654.8,14530.4C16891.7,14467.3 17066.2,14342.6 17178.3,14156.4C17290.4,13970.2 17362.4,13752.5 17394.4,13503.2C17426.4,13253.9 17429.6,12991.9 17404,12717.4C17378.4,12442.8 17346.4,12185.6 17308,11945.8C17263.1,11693.3 17176.7,11458.2 17048.6,11240.5C16920.6,11022.7 16766.9,10839.7 16587.6,10691.4C16408.3,10543.1 16214.6,10438.9 16006.5,10379C15798.4,10319 15595,10317.4 15396.5,10374.2C15191.6,10431 15017.1,10538.3 14873.1,10696.1C14729,10853.9 14616.9,11046.4 14536.9,11273.6C14456.8,11500.8 14410.4,11753.3 14397.6,12031C14384.8,12308.7 14410.4,12595.9 14474.5,12892.5ZM22360.2,10696.1C22411.4,10809.7 22430.7,11046.4 22417.8,11406.2C22405,11765.9 22398.6,12226.7 22398.6,12788.4C22398.6,12996.7 22395.4,13219.2 22389,13455.8C22382.6,13692.5 22382.6,13911.9 22389,14113.8C22395.4,14315.8 22414.6,14487.8 22446.7,14629.8C22478.7,14771.8 22529.9,14849.1 22600.3,14861.7C22414.6,14868.1 22249.8,14871.2 22105.7,14871.2L21726.3,14871.2C21604.6,14871.2 21492.5,14874.4 21390.1,14880.7C21409.3,14823.9 21430.1,14715 21452.5,14554.1C21474.9,14393.1 21494.2,14203.8 21510.2,13986C21526.2,13768.3 21540.6,13534.7 21553.4,13285.4C21566.2,13036.1 21572.6,12791.6 21572.6,12551.7C21579,12034.2 21532.6,11623.9 21433.3,11321C21334.1,11018 21206,10800.3 21049.1,10667.7C20892.2,10535.2 20714.5,10470.5 20516,10473.6C20317.5,10476.8 20119,10522.6 19920.5,10610.9C19811.7,10655.1 19733.2,10745 19685.2,10880.7C19637.2,11016.4 19605.1,11183.7 19589.1,11382.5C19573.1,11581.3 19568.3,11802.2 19574.7,12045.2C19581.1,12288.2 19581.1,12532.8 19574.7,12778.9C19568.3,12886.2 19561.9,13044 19555.5,13252.3C19549.1,13460.6 19545.9,13673.6 19545.9,13891.3C19545.9,14109.1 19553.9,14307.9 19569.9,14487.8C19585.9,14667.7 19616.4,14786 19661.2,14842.8C19533.1,14830.2 19403.4,14823.9 19272.2,14823.9C19140.9,14823.9 19024,14830.2 18921.6,14842.8C18799.9,14855.4 18684.7,14868.1 18575.8,14880.7C18601.4,14779.7 18623.8,14637.7 18643,14454.6C18662.2,14271.6 18678.2,14068.1 18691.1,13844C18703.9,13619.9 18713.5,13383.3 18719.9,13134C18726.3,12884.7 18732.7,12640.1 18739.1,12400.2C18751.9,12002.6 18753.5,11652.3 18743.9,11349.4C18734.3,11046.4 18671.8,10835 18556.6,10715.1C18434.9,10614.1 18310.1,10532 18182,10468.9C18111.5,10437.4 18047.5,10412.1 17989.9,10393.2C18169.2,10374.2 18351.7,10352.1 18537.4,10326.9C18697.5,10301.7 18872,10270.1 19060.9,10232.2C19249.8,10194.4 19430.7,10143.9 19603.5,10080.8L19622.8,10601.5C19706,10563.6 19811.7,10517.8 19939.7,10464.2C20067.8,10410.5 20205.5,10360 20352.7,10312.7C20500,10265.4 20655.3,10227.5 20818.6,10199.1C20981.9,10170.7 21140.4,10159.6 21294,10166C21607.8,10184.9 21846.3,10237 22009.6,10322.2C22172.9,10407.4 22289.8,10532 22360.2,10696.1ZM26784.9,10696.1C26836.1,10809.7 26855.3,11046.4 26842.5,11406.2C26829.7,11765.9 26823.3,12226.7 26823.3,12788.4C26823.3,12996.7 26820.1,13219.2 26813.7,13455.8C26807.3,13692.5 26807.3,13911.9 26813.7,14113.8C26820.1,14315.8 26839.3,14487.8 26871.3,14629.8C26903.3,14771.8 26954.6,14849.1 27025,14861.7C26839.3,14868.1 26674.4,14871.2 26530.3,14871.2L26150.9,14871.2C26029.3,14871.2 25917.2,14874.4 25814.8,14880.7C25834,14823.9 25854.8,14715 25877.2,14554.1C25899.6,14393.1 25918.8,14203.8 25934.8,13986C25950.8,13768.3 25965.2,13534.7 25978,13285.4C25990.9,13036.1 25997.3,12791.6 25997.3,12551.7C26003.7,12034.2 25957.2,11623.9 25858,11321C25758.7,11018 25630.7,10800.3 25473.8,10667.7C25316.9,10535.2 25139.2,10470.5 24940.7,10473.6C24742.2,10476.8 24543.7,10522.6 24345.2,10610.9C24236.3,10655.1 24157.9,10745 24109.9,10880.7C24061.8,11016.4 24029.8,11183.7 24013.8,11382.5C23997.8,11581.3 23993,11802.2 23999.4,12045.2C24005.8,12288.2 24005.8,12532.8 23999.4,12778.9C23993,12886.2 23986.6,13044 23980.2,13252.3C23973.8,13460.6 23970.6,13673.6 23970.6,13891.3C23970.6,14109.1 23978.6,14307.9 23994.6,14487.8C24010.6,14667.7 24041,14786 24085.8,14842.8C23957.8,14830.2 23828.1,14823.9 23696.8,14823.9C23565.6,14823.9 23448.7,14830.2 23346.2,14842.8C23224.6,14855.4 23109.3,14868.1 23000.5,14880.7C23026.1,14779.7 23048.5,14637.7 23067.7,14454.6C23086.9,14271.6 23102.9,14068.1 23115.7,13844C23128.5,13619.9 23138.1,13383.3 23144.5,13134C23150.9,12884.7 23157.3,12640.1 23163.7,12400.2C23176.6,12002.6 23178.2,11652.3 23168.6,11349.4C23158.9,11046.4 23096.5,10835 22981.3,10715.1C22859.6,10614.1 22734.7,10532 22606.7,10468.9C22536.2,10437.4 22472.2,10412.1 22414.5,10393.2C22593.8,10374.2 22776.3,10352.1 22962,10326.9C23122.1,10301.7 23296.6,10270.1 23485.5,10232.2C23674.4,10194.4 23855.3,10143.9 24028.2,10080.8L24047.4,10601.5C24130.7,10563.6 24236.3,10517.8 24364.4,10464.2C24492.5,10410.5 24630.1,10360 24777.4,10312.7C24924.7,10265.4 25080,10227.5 25243.3,10199.1C25406.5,10170.7 25565,10159.6 25718.7,10166C26032.5,10184.9 26271,10237 26434.3,10322.2C26597.6,10407.4 26714.4,10532 26784.9,10696.1ZM31689.6,8887.87C31900.9,8850 32099.4,8805.82 32285.1,8755.33C32445.2,8711.15 32606.9,8662.23 32770.2,8608.59C32933.5,8554.94 33063.1,8499.71 33159.2,8442.91C33127.2,8663.81 33106.4,8894.18 33096.7,9134.02C33087.1,9373.86 33080.7,9626.32 33077.5,9891.41C33074.3,10156.5 33072.7,10437.4 33072.7,10734C33072.7,11030.6 33069.5,11349.4 33063.1,11690.2C33056.7,12024.7 33050.3,12351.3 33043.9,12670.1C33037.5,12988.8 33035.9,13285.4 33039.1,13560C33042.3,13834.5 33053.5,14079.1 33072.7,14293.7C33091.9,14508.3 33124,14681.9 33168.8,14814.4C33040.7,14808.1 32927.1,14803.4 32827.8,14800.2C32728.5,14797 32635.7,14797 32549.3,14800.2C32462.8,14803.4 32376.4,14809.7 32289.9,14819.1C32203.5,14828.6 32109,14842.8 32006.6,14861.7C32051.4,14792.3 32089.8,14620.3 32121.8,14345.8C32153.8,14071.2 32182.7,13743 32208.3,13361.2C32233.9,12979.3 32251.5,12572.2 32261.1,12139.9C32270.7,11707.6 32275.5,11300.5 32275.5,10918.6C32275.5,10536.8 32267.5,10207 32251.5,9929.27C32235.5,9651.57 32214.7,9478 32189.1,9408.57C32150.6,9320.21 32102.6,9242.9 32045,9176.62C31987.4,9110.35 31932.9,9055.13 31881.7,9010.95C31817.7,8960.45 31753.6,8919.43 31689.6,8887.87ZM35192.8,9726.54C35160.8,9871.7 34803.3,10219 34787.2,10446.2C34771.2,10673.5 34761.6,10911.7 34758.4,11161C34755.2,11410.3 34753.6,11656.5 34753.6,11899.5L34753.6,12529L34729.6,13144.4C34720,13390.6 34720,13632 34729.6,13868.7C34739.2,14105.4 34761.6,14310.5 34796.9,14484C34832.1,14657.6 35435.2,15045.5 35512.1,15064.5C35262.4,15064.5 34669.3,14798.5 34311.8,14777.5C34082.7,14764.1 33934,14794.9 33735.5,14820.1C33767.5,14744.4 33794.7,14607.1 33817.1,14408.3C33839.5,14209.5 33855.6,13979.1 33865.2,13717.2C33874.8,13455.3 33881.2,13177.6 33884.4,12884.1C33887.6,12590.6 33889.2,12309.7 33889.2,12041.5C33889.2,11773.2 33886,11531.8 33879.6,11317.2C33873.2,11102.6 33863.6,10944.9 33850.7,10843.9C33735.5,10717.6 33626.6,10611.9 33524.2,10526.7C33421.7,10441.5 33303.3,10361 33168.8,10285.3C33476.1,10272.7 33770.7,10228.5 34052.5,10152.8C34334.2,10077 34936.7,9827.52 35192.8,9726.54ZM26825.3,5853.06C26571.5,5736.02 26333,5613.35 26109.4,5485.62C25680.4,5240.62 25307.4,4977.28 24988.3,4700.09C24990,4659.66 24991.2,4619.32 24992,4579.08C25330.7,4884.78 25671.8,5133.82 25986.8,5291.86C26415.8,5507.12 26811.3,5557.77 27123.3,5440.91C27164.1,5425.61 27203.6,5407.44 27241.4,5386.39C27327,5338.82 27380.3,5255.92 27383.4,5165.64C27384.1,5143.81 27384.7,5121.99 27385.2,5100.2C27397.8,4522.63 27320.4,3961.58 27177.3,3434.19C27560.9,3630.81 27930.4,3777.77 28255.7,3853.37C28319.4,3868.18 28381.7,3880.26 28442.4,3889.62C28887.8,3958.28 29249.6,3880.87 29479.7,3663.55C29545.2,3601.71 29571.7,3514.55 29550.4,3431.44C29509.6,3272.34 29462.1,3116.11 29408.6,2962.99C29255.1,2523.82 29052.2,2110.31 28814.8,1728.37C29289.7,1844.63 29734.7,1909.12 30103.2,1904C30585.5,1897.3 30952.1,1768.61 31163,1538.14C31167.3,1555.26 31171.6,1572.44 31175.9,1589.67C31320,2167.78 31444.4,2807.42 31546.8,3511.2C31558.6,3592 31570,3681.66 31581.7,3778.62C31657.2,4402.74 31744.6,5329.49 32009.5,6146.23C32132.8,6526.44 32296.3,6882.33 32508.9,7181.98C31197.5,7070.81 30042.5,6878.23 29034.8,6620.4C28198.6,6406.46 27463.8,6147.6 26825.3,5853.06ZM10143,-10934.2C10066.7,-11558.4 9980.38,-12499.2 9711.68,-13327.1C9588.28,-13707.2 9424.78,-14063.1 9212.1,-14362.7C10667.6,-14239.6 11930.7,-14016.1 13013.4,-13714.4C13774,-13502.4 14445.6,-13251.9 15032.6,-12970.5C15235.8,-12873.1 15428.9,-12771.9 15611.9,-12667.4C16351.7,-12245.1 16925,-11768.1 17342.6,-11259.7C17342,-11249.3 17341.3,-11238.9 17340.7,-11228.5C17012.9,-11547.7 16680.2,-11809.8 16370,-11979.1C15895.1,-12238.3 15454.4,-12285.7 15120,-12114.7C15032.6,-12070 14975.9,-11988.9 14969.2,-11898.8C14925.4,-11311.2 14976.3,-10736.8 15097,-10194.7C14730.2,-10397.3 14375.4,-10551.4 14060.3,-10635.8C13534.7,-10776.6 13100.7,-10724.5 12829.3,-10486.3C12761.4,-10426.7 12731.3,-10340.4 12749.2,-10256.7C12883.1,-9630.99 13120.1,-9045.66 13422.7,-8516.75C12946.3,-8651.5 12497.8,-8732.46 12124.7,-8739.53C11561.4,-8750.2 11148.9,-8589.33 10952.7,-8287.01C10899.2,-8204.6 10895.4,-8103.62 10942.5,-8018.12C11256.9,-7446.94 11658.4,-6938.99 12106.4,-6500.71C11844.6,-6508.32 11595,-6503.33 11365.2,-6484.54C11045.6,-7108.29 10766.4,-7878.63 10537.3,-8806.16C10396.9,-9374.89 10275.3,-10002.7 10174.9,-10692.1C10164.1,-10765.8 10153.7,-10846.9 10143,-10934.2ZM31465.1,-9083.79C31311.7,-8804.12 31149.2,-8544.15 30978.5,-8303.39C30600.8,-7770.68 30183.8,-7334.18 29740.9,-6988.83C29719.1,-6988.98 29697.2,-6989.04 29675.4,-6989.02C30008.7,-7297.47 30278.9,-7606.93 30448.9,-7891.49C30711.3,-8331.08 30739.9,-8728.35 30531.3,-9018.4C30476.7,-9094.29 30383.3,-9140.57 30282.6,-9141.64C29620.2,-9148.7 28978.1,-9070.14 28376.6,-8929.9C28588.3,-9276.89 28744.9,-9610.34 28823.1,-9902.97C28951,-10381.4 28869.2,-10767.2 28589.1,-10997.2C28519,-11054.8 28421.3,-11077 28329.1,-11056.3C27641.3,-10902.4 27003.9,-10658.7 26432.6,-10359.5C26554.6,-10789.6 26618.9,-11191.9 26606.4,-11523.8C26587.4,-12028.9 26385.7,-12389.4 26038.3,-12548.6C25943.7,-12592 25831,-12589.9 25738.4,-12543C25121.1,-12230.6 24578.6,-11844.1 24115.9,-11419.8C24109.5,-11660.6 24088.9,-11888.9 24053.3,-12097.5C24811.5,-12413.8 25766.7,-12686.5 26934.4,-12904.2C27497.6,-13009.2 28110.3,-13101.3 28774.1,-13179.4C28946.9,-13199.7 29156,-13218.9 29389.2,-13241C30060.3,-13304.6 30931.1,-13391.7 31711.7,-13595.8C32135.5,-13706.7 32532.2,-13853.5 32866.1,-14044.3C32743.3,-12871.9 32530.2,-11838.7 32244.8,-10936.7C32025,-10242.5 31762.4,-9626.11 31465.1,-9083.79ZM12589.7,6030.16C11895.2,6096.73 10892.6,6177.24 10006.2,6408.63C9582.32,6519.28 9185.56,6665.9 8851.5,6856.63C8994.82,5495.12 9259.8,4321.44 9618.46,3323.06C9671.38,3175.74 9726.34,3032.24 9783.26,2892.51C10060.2,2212.62 10383.3,1622.16 10742.2,1116.49C11011.6,736.879 11301,406.162 11605.4,122.503C11803.3,142.756 12000.2,155.663 12195,161.765C11843.8,462.553 11556.4,766.799 11372.8,1048.94C11092.6,1479.62 11047.8,1875.68 11244.5,2172.38C11296,2250.01 11387.4,2299.33 11488,2303.71C12151,2332.58 12797.1,2274.86 13405,2153.95C13185.7,2486.96 13020.1,2808.21 12931.7,3092.66C12784.4,3566.56 12850.4,3954.83 13120.9,4193.82C13188.7,4253.68 13285.3,4279.08 13378.4,4261.47C14068.8,4130.8 14713,3909.66 15294,3631.19C15153.5,4058.97 15072.2,4460.71 15071.1,4794.07C15070,5136.66 15155.6,5415.65 15316.9,5612.93C14774.6,5728.19 14181.4,5830.54 13535.5,5918.57C13343,5944.8 13145.8,5969.76 12944,5993.41C12838.5,6005.77 12719.5,6017.73 12589.7,6030.16ZM18073.5,9367.93C17807.1,9423.99 17085.3,9368.79 17093.2,9343.91C17099.4,9324.28 17795.3,9309.77 18017.7,9260.65C18407.2,9174.61 18756.6,9039.8 18910.3,9004.85C19320.1,8911.64 19769.2,8848.25 20240.1,8841.81C20710,8834.15 21087.8,8831.05 21518.7,8730.48C21787.1,8667.84 22069.4,8561.19 22409.4,8390.26C21916.8,8310.85 21469.6,8197.74 21087.9,8066.21C20849.3,8083.83 20628.1,8115.11 20414.9,8157.49C19767.5,8286.23 19207.8,8487.99 18498.3,8630.18C17791.5,8796.69 17190.7,8816.14 16640.8,8773.74C15682.6,8699.87 14885.1,8425.68 13960.2,8381.88C13639.6,8367.63 13347.4,8337.91 13081.3,8296.34C12736.3,8416.14 12451.3,8500.9 12153.7,8497.61C11180,8486.83 10641.9,8351.24 10265.6,8237.23C10036.2,8167.73 9890.53,8092 9795.96,8024.71C9652.61,7922.71 9577.42,7695.53 9614.92,7688.59C9650.44,7682.03 9741.62,7843.89 9878.41,7929.32C10001.8,8006.38 10210.6,8094.56 10577.4,8166.06C10949.8,8238.64 11379.8,8311.36 12130.3,8314.93C12372.6,8316.08 12543.8,8276.85 12701.6,8225.56C12292.9,8136.3 11956.5,8018.08 11681.6,7888.72C11168.2,7647.12 10850.1,7379.59 10703.7,7175.83C10616.5,7054.42 10532.8,6816.57 10567.9,6814.67C10599.8,6812.94 10741.6,7052.14 10858.4,7151.25C11089.9,7347.6 11455.3,7661.16 12108.3,7881.1C12376.4,7971.41 12689.1,8049.05 13053.1,8102.87C13485.7,7939.75 13980.2,7722.52 14409.7,7601.86L14418.4,7599.41C14123.4,7477.8 13709,7149.86 13240.7,6692C13117,6571.08 12988.1,6441.23 12855,6304.76C12901.1,6299.93 12945.2,6295.09 12987.2,6290.18C13329.8,6250.04 13659,6206.12 13975.1,6158.6C14529.4,6448.63 14983.2,6636.44 15241.9,6697.13C15412.2,6736.96 15574.3,6767.32 15728.8,6789.66C15760.7,6772.68 15793.2,6755.54 15826,6738.38C16381,6448.1 17011.6,6120.22 17717.9,6012.73C17871.3,6440.64 18141.9,6712.96 18491.2,6789.57C18589,6811.03 18692.3,6787.06 18766.3,6725.76C18968.7,6557.93 19157.2,6381.51 19332.1,6198.64C19711.1,6349.28 20107.4,6585.5 20521,6933.97C20591.8,6992.51 20681.7,7050.12 20788.6,7105.31C20838.5,7123.71 20890.5,7141.95 20944.5,7159.89C21429,7101.95 21976.8,7072.16 22628.6,7082.37C23087.1,7089.55 23592.4,7111.57 24164.1,7172.98C24420.2,7200.49 24688.4,7236.37 24969.9,7282.47C25337.4,7186.15 25708,7059.84 26076.8,6902.72C26113.2,6880.49 26151.1,6858.53 26190.5,6836.78C26336.9,6590.13 26490.2,6347.37 26650.2,6108.69C27298.5,6409.37 28043.9,6674.61 28892,6894.5C28489.7,7637.12 27882,8486 26899.9,8580.45C26827.9,8599.86 26756.8,8617.02 26690.7,8637.66C25571.6,8986.73 24850.4,8961.18 24262.5,8906.54C23816.5,8865.09 23473.7,8768.69 23021.8,8932.88C22450.4,9137.64 22016.4,9237.43 21622.1,9268.27C21135.1,9306.36 20725.1,9252.04 20214.9,9182.67C19649.1,9107.41 19401.1,9140.62 18917.6,9199.63C18684,9228.14 18471,9284.31 18073.5,9367.93ZM19656.1,7401.97C19460.9,7300.56 19278.6,7242.85 19098.2,7219.22C18745.3,7173.01 18406.1,7237.41 18027.8,7305.14C17418.1,7414.28 16724.4,7541.83 15792.6,7403.32C15671.1,7457.39 15552.8,7505.2 15437.8,7544.82C16020.4,7645.37 16552.5,7899.82 17124.7,7978.43C17388,8014.61 17659.8,8005.74 17950.5,7920.34C18545.1,7728.84 19072.2,7550.48 19656.1,7401.97ZM18916.1,8089.05C18638.9,8144.82 18359.5,8206.37 18063.5,8266.6C17706.2,8349.38 17379.1,8339.31 17064.3,8281.71C16377.6,8156.08 15758,7784.27 15020.4,7744.88C14866.3,7737.23 14682.1,7768.03 14482.4,7819.43C14167.8,7900.4 13818,8028.99 13481,8152.47C13635.6,8165.72 13798.1,8174.86 13969,8179.24C14894.7,8199.81 15699.8,8465.34 16660.4,8503.27C17175.7,8523.61 17735.4,8471.64 18385.2,8283.42C18571.6,8220.22 18747,8154.93 18916.1,8089.05ZM14314.5,6943.65C14453.4,7039.55 14575.1,7103.31 14677,7125.97C14698.5,7130.75 14720.2,7134.28 14742,7136.61C14616,7085.29 14472.4,7020.69 14314.5,6943.65ZM17943,6636.44C17688.8,6652.38 17444.9,6705.65 17211,6779.72C17446.5,6743.4 17662.9,6696.13 17868.5,6652.22C17893.5,6646.89 17918.3,6641.62 17943,6636.44ZM11357.3,-4337.36C10941.1,-4244.65 10571.8,-4125.97 10284.9,-3983.95C9804.73,-3746.19 9542.09,-3431.93 9541.45,-3091.38C9541.3,-3006.1 9588.82,-2926.43 9668.01,-2879.22C10257.9,-2527.55 10887.7,-2269.59 11518.7,-2092.77C11077.8,-1882.3 10699.4,-1652.06 10432.4,-1418.3C10383.8,-1375.74 10338.8,-1332.83 10297.2,-1289.69C10249.2,-1286.91 10201.8,-1285.38 10155.2,-1285.14L10146,-1285.11C10136.8,-1285.09 10127.7,-1285.13 10118.6,-1285.22L10109.5,-1285.32C9743.19,-1290.18 9423.18,-1377.79 9159.76,-1571.47C8020.04,-2409.48 7769.62,-3238.76 7667.92,-4159.78C7622.84,-4567.94 7606.99,-4994.28 7555.82,-5447.37C7501.4,-5929.18 7363.39,-6496.53 7243.43,-6930.19C7000.43,-7322.27 6751.37,-7841.3 6524.41,-8567.26C6489.38,-8679.29 6485.88,-8760.4 6504.73,-8833.29C6522.57,-8902.27 6565.65,-8975.41 6637.52,-9004.6C7797.14,-9475.45 8866.55,-10047.6 9835.17,-10716.1C9838.1,-10694.6 9841.04,-10673.7 9844.01,-10653.3C9952.88,-9906.21 10086.7,-9229.89 10242.3,-8621.26C9974.95,-8457.29 9702.29,-8299.62 9424.55,-8148.48C9315.47,-8089.12 9226.44,-8041.74 9187.76,-7963.6C9149.08,-7885.47 9162.5,-7772.6 9192.46,-7679.67C9390.02,-7066.88 9478.75,-6666.12 9487.83,-6368.76C9734.49,-5163.5 9855.61,-4453.05 11098.8,-4495.65C11184.2,-4440.97 11270.4,-4388.21 11357.3,-4337.36ZM32251.7,-4083.84C32241.5,-5377.46 32405.7,-6672.57 32744.9,-7940.23C32781,-8075.02 32781.9,-8177.65 32737.6,-8276.05C32693.2,-8374.44 32604.5,-8466.96 32478.6,-8530.62C32231.2,-8655.78 31987.4,-8786.04 31747.5,-8921.25C32045.8,-9460.68 32310.9,-10072.2 32534.5,-10759.3C33250.6,-10331 34008.5,-9953.97 34801.8,-9633.56C35029.9,-9541.43 35148.8,-9412.98 35216.7,-9251.93C35284.6,-9090.88 35297.3,-8903.58 35209.3,-8667.26C34055.5,-5568.05 34136,-2203.11 35439.8,850.581C35522.9,1045.14 35537.3,1221.55 35467.5,1365.49C35397.7,1509.43 35245.5,1614.95 35020.9,1714.23C33891.6,2213.41 32841,2828.81 31887.6,3543.34C31884.3,3519.01 31881,3495.37 31877.7,3472.46C31766.3,2706.81 31628.6,2015.48 31468.2,1395.16C31907,1109.32 32361.2,840.833 32829.5,590.803C32896,555.272 32970.5,524.88 32990.7,467.097C33010.8,409.315 32976.1,324.659 32950.2,244.108C32574.9,-924.1 32350.6,-2121.92 32277.6,-3325.94C32406.5,-3485.85 32470.4,-3657.75 32463.5,-3834.4C32460.2,-3919.63 32409.5,-3997.69 32328.4,-4042.27C32302.9,-4056.3 32277.3,-4070.15 32251.7,-4083.84ZM13207.4,-13972.9C13691.4,-14634.3 14116.1,-15341.8 14477.3,-16093.4C14543.1,-16230.3 14681.2,-16446.9 14813.8,-16482.4C14946.5,-16517.9 15191.1,-16551.1 15394,-16487.8C18912.7,-15391.5 22752.2,-15450.5 26226.9,-16654.2C26429.7,-16724.4 26630.2,-16750.1 26782.9,-16686.5C26935.7,-16622.8 27034.3,-16471.1 27143.4,-16272.3C27687,-15281.1 28354.7,-14357.6 29128.5,-13517C28981.6,-13503.1 28847.7,-13489.9 28730.7,-13476.1C28000.1,-13390.2 27330.3,-13287.1 26718.8,-13168.7C26458.3,-13495.2 26211,-13831.1 25977.7,-14175.6C25909.9,-14275.8 25835.3,-14354.4 25728.6,-14385.7C25622,-14417 25484.9,-14399.9 25337.8,-14363.3C22431.7,-13640.2 19367.5,-13588.3 16433.5,-14212C16266.7,-14247.4 16110.1,-14214.4 15991.5,-14175.3C15872.9,-14136.2 15794.3,-14092.3 15722,-13977.4C15560.7,-13721.1 15391.8,-13469.2 15215.6,-13222C14630.2,-13504.5 13962.2,-13757.4 13207.4,-13972.9ZM9379.67,3019.94C9359.91,2993.67 9340.34,2967.34 9320.97,2940.95C9239.37,2886.75 9159,2836.69 9079.94,2791.14C8716.16,2581.53 8438.36,2386.25 8154.38,2442.66C7747.61,2523.45 7582.13,2833.9 7489.45,2896.01C7388.32,2963.79 7581.75,2554.94 7797.28,2422.16C8194.99,2177.14 8580.25,2267.31 8981.37,2437.45C8538.61,1716.94 8269.4,957.763 8248.4,191.844C8233.32,-357.942 8579.46,-997.389 8687.96,-1098.14C8859.23,-1257.16 8446.81,-401.523 8490.04,153.167C8557.11,1013.81 8942.5,1853.2 9537.73,2628.15C9483.41,2755.56 9430.7,2886.15 9379.67,3019.94ZM17557.7,4957.56C17418.7,5013.33 17273.5,5067.69 17121.8,5120.57C17273.5,5010.21 17418.8,4895.6 17557.6,4777.59C17556.7,4838.38 17556.7,4898.4 17557.7,4957.56ZM30527.7,-341.275C30657.9,-51.471 30780.5,265.506 30894.5,610.484C30637.5,269.278 30349.5,-42.342 30042.2,-322.902C30210,-323.905 30372.5,-329.947 30527.7,-341.275ZM21010.1,-8169.57C21760.7,-8169.57 22503.9,-8036.96 23197.4,-7779.32C23890.9,-7521.68 24521,-7144.05 25051.7,-6667.99C25582.5,-6191.94 26003.5,-5626.77 26290.7,-5004.77C26578,-4382.77 26725.8,-3716.12 26725.8,-3042.87C26725.8,-2369.62 26578,-1702.96 26290.7,-1080.96C26003.5,-458.964 25582.5,106.2 25051.7,582.258C24521,1058.32 23890.9,1435.95 23197.4,1693.59C22503.9,1951.23 21760.7,2083.84 21010.1,2083.84C20259.5,2083.84 19516.2,1951.23 18822.8,1693.59C18129.3,1435.95 17499.2,1058.32 16968.4,582.258C16437.7,106.2 16016.7,-458.964 15729.4,-1080.96C15442.2,-1702.96 15294.3,-2369.62 15294.3,-3042.87C15294.3,-3716.12 15442.2,-4382.77 15729.4,-5004.77C16016.7,-5626.77 16437.7,-6191.94 16968.4,-6667.99C17499.2,-7144.05 18129.3,-7521.68 18822.8,-7779.32C19516.2,-8036.96 20259.5,-8169.57 21010.1,-8169.57ZM21470,-7355.58C21159.2,-7382.66 20846.3,-7382.66 20535.5,-7355.58L20315.6,-6745.7C20048.8,-6705.87 19786.9,-6642.93 19533.7,-6557.78L19003.3,-6987.32C18719,-6871.41 18448,-6731.07 18194,-6568.26L18343.5,-5941.45C18134.7,-5787.31 17943,-5615.36 17771.1,-5428.03L17072.3,-5562.15C16890.8,-5334.31 16734.3,-5091.22 16605.1,-4836.3L17084,-4360.53C16989,-4133.38 16918.9,-3898.49 16874.5,-3659.19L16194.5,-3461.93C16164.3,-3183.21 16164.3,-2902.52 16194.5,-2623.8L16874.5,-2426.55C16918.9,-2187.24 16989,-1952.36 17084,-1725.2L16605.1,-1249.43C16734.3,-994.512 16890.8,-751.427 17072.3,-523.589L17771.1,-657.703C17943,-470.374 18134.7,-298.429 18343.5,-144.281L18194,482.519C18448,645.334 18719,785.679 19003.3,901.585L19533.7,472.039C19786.9,557.197 20048.8,620.133 20315.6,659.965L20535.5,1269.85C20846.3,1296.93 21159.2,1296.93 21470,1269.85L21689.9,659.965C21956.7,620.133 22218.6,557.197 22471.8,472.039L23002.2,901.585C23286.5,785.679 23557.5,645.334 23811.5,482.519L23662,-144.281C23870.8,-298.429 24062.5,-470.374 24234.4,-657.703L24933.2,-523.589C25114.7,-751.427 25271.2,-994.512 25400.4,-1249.43L24921.5,-1725.2C25016.5,-1952.36 25086.6,-2187.24 25131,-2426.55L25811,-2623.8C25841.2,-2902.52 25841.2,-3183.21 25811,-3461.93L25131,-3659.19C25086.6,-3898.49 25016.5,-4133.38 24921.5,-4360.53L25400.4,-4836.3C25271.2,-5091.22 25114.7,-5334.31 24933.2,-5562.15L24234.4,-5428.03C24062.5,-5615.36 23870.8,-5787.31 23662,-5941.45L23811.5,-6568.26C23557.5,-6731.07 23286.5,-6871.41 23002.2,-6987.32L22471.8,-6557.78C22218.6,-6642.93 21956.7,-6705.87 21689.9,-6745.7L21470,-7355.58ZM21010.1,-6065.75C22870.1,-6065.75 24380.3,-4711.24 24380.3,-3042.87C24380.3,-1374.49 22870.1,-19.985 21010.1,-19.985C19150,-19.985 17639.9,-1374.49 17639.9,-3042.87C17639.9,-4711.24 19150,-6065.75 21010.1,-6065.75ZM22491.5,15397.5L22492.1,16058.2L22492.1,16719.5C22492.1,16745.2 22482.8,16767 22464.3,16784.7C22445.8,16802.5 22422.5,16811.4 22394.5,16811.4C22366.6,16811.4 22343.7,16802.5 22325.9,16784.7C22308.1,16767 22299.3,16745.2 22299.3,16719.5L22299.3,15396.9L21868.2,15396.9C21842.5,15396.9 21820.8,15388.8 21803,15372.5C21785.2,15356.3 21776.3,15335.3 21776.3,15309.6C21776.3,15283.9 21785.2,15263.1 21803,15247.2C21820.8,15231.3 21842.5,15223.4 21868.2,15223.4L22923.1,15223.4C22948.8,15223.4 22970.6,15231.5 22988.3,15247.8C23006.1,15264 23015,15285 23015,15310.7C23015,15337.2 23006.1,15358.2 22988.3,15373.7C22973.4,15386.7 22955.6,15394.3 22934.9,15396.3C22931.1,15396.7 22927.2,15396.9 22923.1,15396.9L22491.5,15397.5Z" style="fill:rgb(133,142,0);"/>
            </g>
        </g>
        <g transform="matrix(1.45807,0,0,1.45807,305.671,1662.01)">
            <g transform="matrix(1.86468,0,0,1.86468,-373.638,1102.01)">
                <path d="M1632.92,2103.36C1625.18,2114.02 1618.05,2125.11 1611.55,2136.57C1597.16,2129.4 1581.15,2122.8 1564.12,2116.97C1522.64,2102.76 1475.13,2092.87 1431.17,2088.97C1401.31,2059.19 1374.43,2023.39 1354.13,1982.29C1373.43,1949.14 1445.23,1960.83 1518.29,1991.85C1569,2013.39 1620.32,2044.24 1655.11,2075.87C1647.24,2084.66 1639.84,2093.84 1632.92,2103.36ZM1854.82,1964.85C1841.97,1967.1 1829.25,1970.08 1816.72,1973.76C1811.55,1956.61 1804.35,1938.4 1795.52,1919.93C1776.55,1880.29 1750.25,1839.36 1722.16,1805.21C1722.49,1763.04 1729.2,1718.78 1744.31,1675.5C1781.43,1666.06 1823.33,1725.31 1852.38,1799.03C1873.3,1852.13 1887.55,1912.75 1888.54,1960.62C1877.23,1961.48 1865.97,1962.89 1854.82,1964.85ZM2087.65,2005.29C2076.48,1998.93 2064.94,1993.18 2053.1,1988.08C2060.39,1971.99 2066.87,1953.86 2072.34,1934.5C2084.32,1892.07 2091.6,1843.79 2093.03,1799.47C2121.09,1768.11 2155.28,1739.38 2195.11,1716.91C2229.16,1734.3 2221.6,1806.2 2194.86,1880.58C2175.89,1933.33 2147.28,1987.32 2117.02,2024.01C2107.55,2017.29 2097.74,2011.04 2087.65,2005.29ZM2250.23,2211.88C2246.7,2199.61 2242.49,2187.52 2237.61,2175.67C2251.92,2170.01 2266.79,2162.94 2281.79,2154.73C2320.57,2133.49 2360.24,2104.76 2392.91,2074.63C2434.8,2072.74 2479.09,2077.03 2522.86,2089.66C2534.28,2126.06 2477.93,2170.94 2406.32,2203.95C2358.68,2225.91 2304.28,2242.62 2258.6,2248.1C2256.46,2235.89 2253.67,2223.8 2250.23,2211.88ZM2323.42,2581.63C2278.15,2564.46 2232.03,2540.06 2196.94,2513.79C2204.59,2503.3 2211.64,2492.39 2218.07,2481.11C2224.55,2469.74 2230.4,2457.99 2235.58,2445.91C2246.84,2450.48 2258.84,2454.69 2271.38,2458.48C2313.72,2471.27 2362.04,2479.45 2406.45,2481.66C2437.05,2510.18 2464.92,2544.7 2486.51,2584.67C2468.55,2618.31 2397.1,2609.56 2323.42,2581.63ZM1995.61,2786.75C1977.01,2744.33 1962.6,2696.75 1956.31,2654.7C1969.35,2653.15 1982.28,2650.86 1995.05,2647.86C2008.26,2644.74 2021.29,2640.86 2034.07,2636.22C2038.02,2645.31 2042.47,2654.56 2047.34,2663.86C2067.84,2702.95 2095.77,2743.07 2125.24,2776.26C2126.33,2818.07 2121.22,2862.13 2107.83,2905.54C2071.19,2916.3 2027.31,2859.03 1995.61,2786.75ZM1719.44,2597.11C1730.75,2604.77 1742.51,2611.77 1754.66,2618.07C1750.79,2627.55 1747.17,2637.53 1743.84,2647.89C1730.35,2689.75 1721.31,2737.6 1718.24,2781.74C1689.12,2811.91 1654.03,2839.22 1613.56,2860.13C1580.14,2841.49 1590.39,2769.77 1619.91,2696.33C1637.6,2652.33 1662.21,2607.72 1688.49,2573.52C1698.37,2581.96 1708.7,2589.84 1719.44,2597.11ZM1570.86,2364.53C1573.01,2377.75 1575.93,2390.84 1579.6,2403.74C1567.54,2408.35 1555.12,2413.86 1542.59,2420.13C1503.38,2439.78 1463.02,2466.76 1429.43,2495.41C1387.37,2495.82 1343.11,2489.91 1299.68,2475.64C1289.55,2438.66 1348.15,2395.63 1421.43,2365.23C1468.61,2345.67 1521.88,2331.34 1566.81,2327.22C1567.49,2339.74 1568.84,2352.19 1570.86,2364.53ZM1408.11,2232.92C1366.4,2211.38 1325.71,2181.51 1291.3,2142.89C1301.09,2105.8 1373.42,2097.98 1452.1,2108.47C1505.49,2115.58 1561.8,2131.13 1603.49,2151.68C1599.67,2159.28 1596.12,2167.03 1592.85,2174.91C1591.51,2178.14 1590.22,2181.4 1588.98,2184.67C1582.89,2200.72 1578,2217.18 1574.35,2233.9C1571.35,2247.64 1569.17,2261.56 1567.85,2275.58C1521.11,2275.52 1463.7,2261.63 1408.11,2232.92ZM1603.37,1889.49C1589.59,1844.73 1582.44,1794.89 1585.89,1743.42C1619.17,1724.45 1675.31,1770.42 1722.91,1833.78C1756.95,1879.1 1786.62,1933.3 1800.43,1978.98C1794.1,1981.19 1787.82,1983.58 1781.61,1986.15C1777.24,1987.96 1772.91,1989.86 1768.62,1991.84C1753.15,1999 1738.25,2007.27 1724.03,2016.58C1712.85,2023.9 1702.09,2031.86 1691.81,2040.43C1656.46,2007.27 1623.11,1953.59 1603.37,1889.49ZM1978.32,1965.39C1957.55,1961.56 1936.43,1959.61 1915.21,1959.6C1908.34,1897.79 1926.74,1811.71 1974.88,1734.69C1990.55,1709.62 2009.37,1685.51 2031.49,1663.51C2068.93,1671.23 2080.75,1742.54 2074.74,1821.36C2070.44,1877.84 2056.97,1938.16 2037.22,1981.69C2026.42,1977.65 2015.46,1974.16 2004.35,1971.22C1995.75,1968.95 1987.07,1967 1978.32,1965.39ZM2183.63,2085.84C2176.71,2077.49 2169.39,2069.45 2161.7,2061.76C2160.02,2060.08 2158.33,2058.43 2156.63,2056.79C2187.68,2020.26 2238.61,1984.69 2300.4,1961.66C2344.64,1945.17 2394.45,1935.11 2446.53,1935.73C2467.21,1967.78 2424.81,2026.02 2364.56,2076.88C2323.47,2111.56 2274.07,2142.81 2230.71,2159.99C2225.52,2148.95 2219.76,2138.21 2213.46,2127.8C2204.57,2113.11 2194.6,2099.08 2183.63,2085.84ZM2385.03,2463.01C2335.59,2458.38 2283.27,2446.65 2241.96,2429.99C2246.45,2417.93 2250.26,2405.65 2253.38,2393.2C2257.64,2376.18 2260.62,2358.85 2262.28,2341.36C2263.33,2330.42 2263.85,2319.41 2263.85,2308.38C2263.85,2305.6 2263.82,2302.83 2263.75,2300.05C2309.64,2298.8 2366.01,2310.36 2421.29,2336.08C2464.36,2356.12 2506.77,2384.74 2543.06,2422.59C2534.68,2459.8 2463.49,2470.35 2385.03,2463.01ZM2123.54,2747.89C2094.06,2711.61 2067.3,2669.12 2050.07,2629.96C2062.17,2624.88 2073.95,2619.14 2085.36,2612.76C2101.1,2603.95 2116.14,2593.93 2130.33,2582.8C2141.31,2574.18 2151.79,2564.9 2161.7,2554.99C2161.84,2554.85 2161.99,2554.7 2162.14,2554.55C2192.45,2586.21 2220.66,2631.52 2239.57,2684.69C2255.54,2729.56 2264.88,2780.02 2263.29,2832.58C2230.84,2852.69 2173.31,2809.15 2123.54,2747.89ZM1863.48,2800.01C1842.65,2842.71 1813.25,2884.6 1774.74,2920.19C1737.57,2911.1 1728.38,2839.24 1737.32,2760.59C1742.61,2714.11 1754.22,2665.26 1770.13,2625.6C1773.92,2627.34 1777.75,2629 1781.61,2630.6C1789.79,2633.99 1798.08,2637.06 1806.47,2639.81C1823.68,2645.45 1841.3,2649.73 1859.15,2652.63C1873.35,2654.94 1887.7,2656.37 1902.12,2656.91C1900.19,2700.03 1887.59,2750.57 1863.48,2800.01ZM1516.94,2612.39C1472.12,2627.25 1421.97,2635.49 1369.95,2632.96C1350.35,2600 1395.4,2542.95 1457.97,2494.16C1497.2,2463.58 1543.31,2436.25 1584.7,2420.15C1587.17,2427.46 1589.89,2434.7 1592.85,2441.85C1594.75,2446.41 1596.73,2450.94 1598.82,2455.41C1606.26,2471.42 1614.89,2486.81 1624.63,2501.47C1632.62,2513.49 1641.36,2525.01 1650.8,2535.97C1618.28,2566.31 1571.57,2594.27 1516.94,2612.39ZM1566.31,2309.11C1552.32,2310.3 1537.59,2312.43 1522.5,2315.42C1479.04,2324.03 1432.47,2339.53 1392.16,2358.47C1351.96,2347.65 1311.39,2330.31 1273.76,2305.3C1273.81,2273.53 1320.45,2250.3 1381.21,2237.68C1444.74,2274.5 1512.39,2292.31 1566.65,2292.75C1566.42,2297.95 1566.31,2303.16 1566.31,2308.38C1566.31,2308.62 1566.31,2308.86 1566.31,2309.11ZM1667.5,2062.72C1654.95,2051.24 1640.44,2039.87 1624.56,2029.03C1587.98,2004.06 1544.31,1981.69 1502.57,1966.2C1482.05,1929.87 1465.93,1888.67 1457.39,1844.17C1480.13,1821.92 1529.49,1839.01 1581.15,1873.63C1600.47,1949.26 1638.4,2013.2 1678.83,2051.81C1675.3,2055.05 1671.85,2058.37 1668.46,2061.76C1668.14,2062.08 1667.82,2062.4 1667.5,2062.72ZM2131.48,2034.86C2142.45,2021.56 2153.18,2006.22 2163.29,1989.51C2186.34,1951.4 2206.37,1906.28 2219.54,1863.54C2254.64,1841.13 2294.8,1822.84 2338.66,1811.89C2362.33,1833.56 2347.52,1884.47 2315.21,1938.47C2241.38,1961.92 2180.12,2003 2143.93,2045.19C2139.86,2041.65 2135.71,2038.2 2131.48,2034.86ZM2261.26,2265.99C2275.57,2264.3 2290.63,2261.57 2306.05,2257.93C2349.52,2247.66 2395.89,2230.27 2435.68,2209.65C2476.11,2219 2517.15,2234.81 2555.53,2258.35C2556.66,2290.5 2509.73,2315.65 2448.34,2330.41C2384.13,2296.57 2316.69,2281.47 2262.92,2282.9C2262.5,2277.25 2261.95,2271.61 2261.26,2265.99ZM2185.89,2528.15C2194.83,2534.88 2204.43,2541.48 2214.55,2547.86C2252.35,2571.69 2297.26,2592.6 2339.88,2606.55C2361.44,2641.88 2378.84,2682.13 2388.91,2725.89C2366.78,2749.18 2316.06,2733.39 2262.59,2700.01C2243.04,2635.02 2209.84,2579.51 2173.95,2542.09C2178.06,2537.55 2182.04,2532.9 2185.89,2528.15ZM1938.23,2656.38C1939.61,2665.92 1941.39,2675.73 1943.56,2685.69C1953.01,2729.26 1969.51,2775.85 1989.35,2815.98C1979.25,2856.11 1962.72,2896.72 1938.56,2934.55C1906.57,2935.09 1882.38,2888.23 1868.7,2827.07C1900.59,2769.11 1916.98,2708.18 1919.27,2657.12C1925.6,2657.05 1931.92,2656.8 1938.23,2656.38ZM1674.99,2561.36C1668.3,2569.95 1661.72,2579.18 1655.35,2588.89C1630.97,2626.03 1609.35,2670.27 1594.63,2712.4C1558.84,2733.39 1518.19,2750.11 1474.15,2759.4C1451.46,2737.05 1467.69,2687.32 1501.42,2634.99C1567.38,2616.64 1624.02,2584.18 1662.31,2548.69C1664.33,2550.82 1666.38,2552.92 1668.46,2554.99C1670.61,2557.15 1672.79,2559.27 1674.99,2561.36ZM1899.21,1894.7C1891.13,1852.88 1877,1808.56 1859.66,1769.87C1871.21,1729.77 1889.31,1689.4 1915.08,1652.13C1937.86,1652.59 1955.81,1676.93 1968.39,1713.17C1928.69,1772.16 1906.34,1837.42 1899.21,1894.7Z" style="fill:rgb(255,205,0);"/>
            </g>
        </g>
    </g>
</svg>
