<svg width="470" height="606" viewBox="0 0 470 606" fill="none" xmlns="http://www.w3.org/2000/svg">
<path fill-rule="evenodd" clip-rule="evenodd" d="M155.51 189.207C153.326 192.225 151.314 195.364 149.48 198.608C145.42 196.579 140.903 194.71 136.098 193.06C124.395 189.038 110.99 186.238 98.587 185.134C90.1621 176.704 82.578 166.57 76.8505 154.936C82.2959 145.553 102.554 148.862 123.167 157.642C137.475 163.74 151.955 172.472 161.771 181.426C159.55 183.914 157.462 186.513 155.51 189.207ZM218.118 150C214.492 150.636 210.903 151.48 207.368 152.522C205.909 147.667 203.878 142.512 201.387 137.284C196.034 126.063 188.614 114.477 180.688 104.81C180.782 92.8734 182.675 80.3448 186.938 68.0936C197.411 65.4214 209.233 82.1933 217.429 103.061C223.332 118.092 227.352 135.252 227.632 148.802C224.441 149.046 221.264 149.445 218.118 150ZM283.81 161.447C280.658 159.647 277.402 158.019 274.062 156.575C276.118 152.021 277.947 146.889 279.49 141.408C282.87 129.398 284.924 115.731 285.328 103.186C293.245 94.3086 302.891 86.176 314.129 79.8155C323.736 84.738 321.603 105.091 314.059 126.145C308.706 141.077 300.634 156.36 292.096 166.746C289.424 164.844 286.657 163.075 283.81 161.447ZM329.681 219.926C328.685 216.453 327.497 213.03 326.12 209.676C330.158 208.074 334.353 206.073 338.585 203.749C349.527 197.736 360.72 189.604 369.937 181.075C381.756 180.54 394.253 181.754 406.602 185.329C409.824 195.633 393.925 208.337 373.721 217.681C360.28 223.898 344.931 228.628 332.043 230.179C331.439 226.723 330.652 223.3 329.681 219.926ZM350.331 324.591C337.558 319.73 324.546 312.824 314.645 305.387C316.804 302.418 318.793 299.33 320.607 296.137C322.435 292.918 324.086 289.592 325.548 286.173C328.724 287.466 332.11 288.658 335.648 289.731C347.594 293.351 361.228 295.667 373.758 296.292C382.391 304.365 390.255 314.137 396.346 325.451C391.279 334.974 371.12 332.497 350.331 324.591ZM257.841 382.654C252.593 370.646 248.527 357.178 246.753 345.275C250.432 344.836 254.08 344.188 257.683 343.338C261.41 342.455 265.087 341.357 268.692 340.043C269.807 342.617 271.062 345.235 272.436 347.868C278.22 358.933 286.101 370.289 294.416 379.684C294.723 391.52 293.281 403.992 289.503 416.28C279.166 419.325 266.785 403.114 257.841 382.654ZM179.921 328.973C183.112 331.141 186.43 333.122 189.858 334.906C188.766 337.589 187.745 340.414 186.805 343.347C182.999 355.196 180.449 368.741 179.582 381.236C171.366 389.776 161.466 397.506 150.047 403.425C140.618 398.149 143.51 377.847 151.839 357.059C156.83 344.604 163.774 331.976 171.189 322.295C173.976 324.684 176.891 326.915 179.921 328.973ZM138 263.137C138.606 266.879 139.43 270.584 140.466 274.236C137.063 275.541 133.559 277.1 130.024 278.875C118.961 284.437 107.573 292.075 98.096 300.185C86.229 300.301 73.7413 298.628 61.4877 294.588C58.6296 284.12 75.1633 271.94 95.8389 263.335C109.151 257.798 124.18 253.741 136.857 252.575C137.049 256.119 137.43 259.643 138 263.137ZM92.0807 225.882C80.3124 219.785 68.8319 211.329 59.1233 200.397C61.8855 189.898 82.2931 187.685 104.492 190.654C119.556 192.667 135.444 197.068 147.206 202.885C146.128 205.037 145.127 207.23 144.204 209.461C143.826 210.375 143.462 211.298 143.112 212.224C141.394 216.767 140.014 221.426 138.985 226.159C138.138 230.049 137.523 233.989 137.151 237.958C123.963 237.941 107.765 234.009 92.0807 225.882ZM147.172 128.667C143.284 115.997 141.267 101.889 142.241 87.3196C151.63 81.9498 167.47 94.9625 180.9 112.898C190.504 125.726 198.876 141.069 202.772 153.999C200.986 154.625 199.214 155.301 197.462 156.029C196.229 156.541 195.007 157.079 193.797 157.64C189.432 159.666 185.228 162.007 181.216 164.643C178.062 166.715 175.026 168.968 172.125 171.394C162.152 162.007 152.742 146.812 147.172 128.667ZM252.963 150.152C247.103 149.068 241.144 148.516 235.157 148.513C233.218 131.017 238.41 106.65 251.992 84.8484C256.413 77.7519 261.723 70.9271 267.964 64.6996C278.528 66.8849 281.863 87.0705 280.167 109.382C278.954 125.37 275.154 142.444 269.581 154.766C266.534 153.623 263.442 152.635 260.307 151.803C257.881 151.16 255.432 150.608 252.963 150.152ZM310.89 184.248C308.938 181.884 306.872 179.609 304.703 177.432C304.229 176.956 303.752 176.489 303.272 176.025C312.033 165.684 326.402 155.616 343.836 149.097C356.318 144.429 370.372 141.581 385.066 141.757C390.901 150.829 378.938 167.315 361.939 181.712C350.345 191.529 336.407 200.374 324.173 205.238C322.709 202.113 321.084 199.072 319.306 196.126C316.798 191.967 313.985 187.996 310.89 184.248ZM367.714 291.013C353.765 289.703 339.003 286.382 327.348 281.666C328.614 278.252 329.689 274.776 330.57 271.252C331.772 266.434 332.612 261.529 333.081 256.578C333.377 253.481 333.524 250.364 333.524 247.242C333.524 246.455 333.515 245.671 333.496 244.884C346.443 244.53 362.348 247.803 377.945 255.083C390.097 260.756 402.063 268.857 412.302 279.572C409.937 290.105 389.851 293.091 367.714 291.013ZM293.936 371.654C285.618 361.384 278.068 349.356 273.207 338.271C276.621 336.833 279.944 335.209 283.164 333.403C287.605 330.909 291.848 328.073 295.852 324.922C298.95 322.482 301.907 319.855 304.703 317.05C304.742 317.01 304.784 316.968 304.827 316.925C313.379 325.887 321.338 338.713 326.673 353.764C331.179 366.465 333.814 380.749 333.366 395.627C324.21 401.319 307.978 388.995 293.936 371.654ZM220.561 386.407C214.684 398.494 206.389 410.352 195.524 420.427C185.036 417.853 182.443 397.512 184.966 375.249C186.458 362.092 189.734 348.264 194.223 337.037C195.292 337.53 196.373 338 197.462 338.453C199.77 339.412 202.109 340.281 204.476 341.06C209.332 342.656 214.303 343.868 219.34 344.689C223.346 345.343 227.395 345.747 231.463 345.9C230.919 358.106 227.364 372.412 220.561 386.407ZM122.787 333.298C110.141 337.504 95.9912 339.837 81.314 339.121C75.784 329.791 88.4946 313.642 106.148 299.831C117.217 291.174 130.227 283.438 141.905 278.881C142.602 280.95 143.369 282.999 144.204 285.023C144.74 286.314 145.299 287.596 145.889 288.862C147.988 293.394 150.423 297.75 153.171 301.9C155.425 305.302 157.891 308.563 160.555 311.666C151.379 320.254 138.2 328.169 122.787 333.298ZM136.716 247.449C132.769 247.786 128.613 248.389 124.355 249.235C112.093 251.672 98.9538 256.06 87.5805 261.421C76.2382 258.358 64.7916 253.45 54.1745 246.37C54.1886 237.377 67.3478 230.802 84.491 227.229C102.416 237.652 121.503 242.693 136.812 242.818C136.747 244.29 136.716 245.765 136.716 247.242C136.716 247.31 136.716 247.378 136.716 247.449ZM165.266 177.704C161.725 174.454 157.632 171.235 153.151 168.167C142.83 161.099 130.509 154.766 118.732 150.382C112.943 140.098 108.394 128.435 105.985 115.839C112.401 109.541 126.328 114.378 140.903 124.178C146.354 145.587 157.056 163.686 168.463 174.615C167.467 175.532 166.494 176.472 165.537 177.432C165.447 177.522 165.357 177.613 165.266 177.704ZM296.176 169.817C299.271 166.052 302.299 161.71 305.151 156.98C311.655 146.192 317.306 133.42 321.022 121.322C330.925 114.978 342.256 109.801 354.631 106.701C361.309 112.835 357.131 127.246 348.015 142.532C327.184 149.17 309.9 160.799 299.689 172.741C298.541 171.739 297.37 170.763 296.176 169.817ZM332.793 235.243C336.831 234.765 341.08 233.992 345.43 232.961C357.695 230.054 370.778 225.132 382.005 219.295C393.412 221.941 404.991 226.417 415.82 233.08C416.139 242.181 402.898 249.3 385.577 253.478C367.46 243.899 348.432 239.625 333.261 240.03C333.143 238.43 332.988 236.834 332.793 235.243ZM311.528 309.452C314.05 311.357 316.759 313.226 319.614 315.032C330.279 321.777 342.95 327.696 354.975 331.645C361.058 341.646 365.968 353.039 368.809 365.426C362.565 372.019 348.255 367.549 333.168 358.1C327.652 339.704 318.285 323.991 308.159 313.398C309.318 312.113 310.441 310.797 311.528 309.452ZM241.652 345.75C242.041 348.451 242.543 351.228 243.155 354.047C245.822 366.38 250.477 379.568 256.075 390.928C253.225 402.288 248.561 413.783 241.745 424.491C232.719 424.644 225.894 411.38 222.034 394.067C231.032 377.661 235.656 360.413 236.302 345.96C238.088 345.94 239.871 345.869 241.652 345.75ZM167.38 318.853C165.492 321.285 163.636 323.897 161.838 326.646C154.96 337.159 148.86 349.682 144.706 361.608C134.608 367.549 123.139 372.282 110.714 374.912C104.312 368.585 108.891 354.508 118.408 339.695C137.018 334.501 152.999 325.313 163.802 315.266C164.372 315.869 164.95 316.464 165.537 317.05C166.144 317.661 166.759 318.261 167.38 318.853ZM230.642 130.142C228.363 118.304 224.376 105.759 219.483 94.8068C222.742 83.4557 227.849 72.0282 235.12 61.4783C241.547 61.6085 246.612 68.4984 250.161 78.7568C238.96 95.455 232.654 113.928 230.642 130.142Z" fill="#FFCD00"/>
<path fill-rule="evenodd" clip-rule="evenodd" d="M33.5557 602.373H44.6888C45.1052 602.373 45.4573 602.527 45.7451 602.834C46.033 603.141 46.1769 603.527 46.1769 603.991C46.1769 604.456 46.033 604.838 45.7451 605.138C45.4573 605.44 45.1052 605.59 44.6888 605.59H31.9757C31.547 605.59 31.1918 605.429 30.9102 605.108C30.6285 604.788 30.4876 604.394 30.4876 603.93V578.57C30.4876 578.106 30.6345 577.714 30.9285 577.393C31.2224 577.073 31.5961 576.912 32.0493 576.912C32.4534 576.912 32.8055 577.073 33.1056 577.393C33.4056 577.714 33.5557 578.106 33.5557 578.57V602.373ZM75.1497 600.181L83.2139 577.914C83.5087 577.219 83.9605 576.871 84.5728 576.871C85.002 576.871 85.3599 577.017 85.6482 577.311C85.9365 577.604 86.0807 577.978 86.0807 578.427C86.0807 578.66 86.0304 578.911 85.9333 579.186L76.3612 604.524C76.2138 604.88 76.0097 605.145 75.7457 605.322C75.4833 605.501 75.2096 605.59 74.9278 605.59C74.6589 605.575 74.3982 605.48 74.1471 605.303C73.8961 605.126 73.7098 604.873 73.5867 604.544L64.0518 579.226C64.0033 579.117 63.966 578.998 63.9417 578.868C63.9174 578.738 63.9061 578.604 63.9061 578.469C63.9061 577.963 64.0713 577.568 64.4017 577.281C64.7321 576.993 65.056 576.851 65.3751 576.851C66.0246 576.851 66.4959 577.227 66.789 577.978L75.1497 600.181ZM109.118 582.953V604.094C109.118 604.517 108.989 604.873 108.731 605.16C108.476 605.445 108.143 605.59 107.74 605.59C107.335 605.59 107.011 605.445 106.767 605.16C106.521 604.873 106.399 604.517 106.399 604.094V578.57C106.399 578.066 106.543 577.663 106.83 577.362C107.118 577.062 107.458 576.912 107.85 576.912C108.071 576.912 108.297 576.959 108.531 577.055C108.762 577.151 108.94 577.3 109.063 577.506L124.091 599.688V578.447C124.091 578.01 124.22 577.645 124.476 577.353C124.734 577.058 125.059 576.912 125.451 576.912C125.854 576.912 126.178 577.058 126.424 577.353C126.669 577.645 126.792 578.01 126.792 578.447V603.889C126.792 604.394 126.645 604.804 126.35 605.118C126.057 605.433 125.702 605.59 125.284 605.59C125.077 605.59 124.863 605.545 124.641 605.456C124.421 605.368 124.249 605.241 124.128 605.077L109.118 582.953ZM153.889 594.057H148.855C148.439 594.057 148.087 593.9 147.799 593.586C147.512 593.272 147.368 592.882 147.368 592.418C147.368 591.941 147.512 591.547 147.799 591.24C148.087 590.933 148.439 590.78 148.855 590.78H155.542C155.972 590.78 156.323 590.94 156.598 591.26C156.875 591.581 157.013 591.975 157.013 592.439V601.922C157.013 602.251 156.942 602.538 156.801 602.783C156.66 603.029 156.487 603.233 156.278 603.397C155.175 604.19 153.957 604.82 152.622 605.292C151.286 605.763 149.896 606 148.452 606C146.565 606 144.817 605.628 143.206 604.882C141.596 604.138 140.187 603.098 138.982 601.759C137.775 600.421 136.834 598.857 136.16 597.068C135.488 595.28 135.151 593.34 135.151 591.251C135.151 589.162 135.488 587.222 136.16 585.432C136.834 583.645 137.775 582.081 138.982 580.743C140.187 579.404 141.596 578.362 143.206 577.618C144.817 576.874 146.565 576.502 148.452 576.502C149.7 576.502 150.907 576.663 152.07 576.983C153.234 577.304 154.287 577.786 155.23 578.427C155.476 578.577 155.656 578.776 155.772 579.021C155.889 579.267 155.947 579.52 155.947 579.78C155.947 580.244 155.806 580.64 155.525 580.968C155.243 581.295 154.919 581.459 154.551 581.459C154.404 581.459 154.26 581.436 154.119 581.387C153.978 581.34 153.84 581.281 153.706 581.214C152.946 580.777 152.125 580.428 151.244 580.168C150.363 579.91 149.431 579.78 148.452 579.78C146.516 579.78 144.783 580.284 143.253 581.295C141.722 582.306 140.515 583.675 139.633 585.402C138.752 587.13 138.311 589.078 138.311 591.251C138.311 593.409 138.752 595.358 139.633 597.098C140.515 598.839 141.722 600.212 143.253 601.216C144.783 602.22 146.516 602.722 148.452 602.722C149.431 602.722 150.439 602.574 151.474 602.281C152.399 602.019 153.204 601.682 153.889 601.272V594.057ZM208.711 591.731L200.682 579.635C200.535 579.417 200.431 579.206 200.369 579.002C200.308 578.796 200.277 578.599 200.277 578.408C200.277 577.929 200.449 577.537 200.792 577.228C201.135 576.921 201.484 576.768 201.84 576.768C202.316 576.768 202.721 577.021 203.051 577.526L210.264 588.558L217.253 577.568C217.583 577.035 217.994 576.768 218.483 576.768C218.888 576.768 219.233 576.936 219.522 577.27C219.81 577.604 219.954 577.99 219.954 578.427C219.954 578.604 219.931 578.78 219.889 578.949C219.846 579.121 219.776 579.287 219.679 579.451L211.65 591.934V603.93C211.65 604.394 211.506 604.788 211.218 605.108C210.929 605.429 210.591 605.59 210.199 605.59C209.77 605.59 209.415 605.429 209.133 605.108C208.851 604.788 208.711 604.394 208.711 603.93V591.731ZM411.531 569.015C408.607 569.028 405.964 569.084 403.599 569.185C400.903 569.299 398.621 569.468 396.755 569.698C394.576 569.925 392.709 570.153 391.154 570.38C391.258 569.584 391.361 568.672 391.465 567.646C391.569 566.734 391.646 565.709 391.698 564.569C391.75 563.428 391.776 562.174 391.776 560.807C383.997 566.277 376.582 569.355 369.53 570.039C362.477 570.723 356.28 569.783 350.938 567.218C345.598 564.654 341.293 560.834 338.026 555.763C334.76 550.691 332.971 545.192 332.659 539.265C332.037 525.701 333.827 514.56 338.026 505.84C342.228 497.121 349.876 491.051 360.973 487.633C366.885 485.695 372.225 484.725 376.997 484.725C381.768 484.725 385.916 485.182 389.442 486.094C393.59 487.12 397.273 488.545 400.488 490.367C401.628 489.571 402.822 488.772 404.066 487.974C405.206 487.29 406.452 486.52 407.799 485.666C409.148 484.812 410.548 483.985 412 483.187C409.615 484.783 407.877 487.091 406.788 490.111C405.698 493.132 404.947 496.55 404.532 500.37C404.118 504.187 403.962 508.234 404.066 512.509C404.169 516.782 404.273 520.914 404.377 524.903C404.48 527.639 404.532 530.66 404.532 533.965C404.532 537.269 404.584 540.605 404.688 543.966C404.791 547.328 404.999 550.548 405.31 553.625C405.621 556.704 406.063 559.411 406.633 561.746C407.203 564.083 407.98 565.936 408.967 567.303C409.673 568.286 410.528 568.856 411.531 569.015ZM411.531 569.015C411.94 569.013 412.357 569.013 412.778 569.013C412.339 569.078 411.923 569.078 411.531 569.015ZM363.463 488.487C361.699 489.285 359.858 490.795 357.94 493.018C356.021 495.241 354.284 498.118 352.728 501.652C351.173 505.184 349.953 509.345 349.072 514.132C348.191 518.92 347.905 524.276 348.217 530.203C348.735 537.385 350.213 543.368 352.65 548.155C355.088 552.943 357.914 556.675 361.129 559.354C364.344 562.032 367.714 563.713 371.24 564.397C374.766 565.082 377.93 564.853 380.73 563.713C384.463 562.346 387.16 560.437 388.82 557.987C390.479 555.536 391.569 551.944 392.087 547.214C392.605 542.485 392.761 536.386 392.553 528.921C392.346 521.455 392.242 512.081 392.242 500.796C390.895 497.036 388.898 494.186 386.253 492.249C383.608 490.311 380.834 488.971 377.93 488.231C375.026 487.49 372.225 487.234 369.53 487.461C366.833 487.689 364.81 488.032 363.463 488.487ZM398.893 580.045H391.912C391.496 580.045 391.143 579.899 390.854 579.605C390.568 579.312 390.424 578.933 390.424 578.469C390.424 578.005 390.568 577.629 390.854 577.342C391.143 577.055 391.496 576.912 391.912 576.912H408.998C409.414 576.912 409.765 577.058 410.054 577.353C410.342 577.645 410.484 578.025 410.484 578.489C410.484 578.967 410.342 579.347 410.054 579.626C409.765 579.906 409.414 580.045 408.998 580.045H402.015V603.93C402.015 604.394 401.866 604.788 401.565 605.108C401.265 605.429 400.89 605.59 400.436 605.59C399.983 605.59 399.612 605.429 399.325 605.108C399.037 604.788 398.893 604.394 398.893 603.93V580.045ZM278.192 602.415H289.691C290.109 602.415 290.461 602.574 290.749 602.895C291.036 603.217 291.18 603.589 291.18 604.011C291.18 604.475 291.036 604.855 290.749 605.149C290.461 605.442 290.109 605.59 289.691 605.59H276.611C276.195 605.59 275.843 605.429 275.555 605.108C275.267 604.788 275.124 604.394 275.124 603.93V578.57C275.124 578.106 275.267 577.714 275.555 577.393C275.843 577.073 276.195 576.912 276.611 576.912H289.691C290.109 576.912 290.461 577.066 290.749 577.373C291.036 577.68 291.18 578.066 291.18 578.53C291.18 578.994 291.036 579.37 290.749 579.657C290.461 579.943 290.109 580.087 289.691 580.087H278.192V589.284H288.039C288.455 589.284 288.807 589.438 289.095 589.745C289.383 590.052 289.526 590.438 289.526 590.902C289.526 591.367 289.383 591.742 289.095 592.029C288.807 592.316 288.455 592.459 288.039 592.459H278.192V602.415ZM302.478 583.213V603.93C302.478 604.394 302.344 604.788 302.075 605.108C301.805 605.429 301.463 605.59 301.045 605.59C300.629 605.59 300.289 605.429 300.026 605.108C299.762 604.788 299.631 604.394 299.631 603.93V578.55C299.631 578.113 299.775 577.727 300.063 577.393C300.35 577.059 300.708 576.891 301.137 576.891C301.37 576.891 301.612 576.956 301.863 577.086C302.114 577.216 302.313 577.396 302.461 577.629L311.547 592.939L320.758 577.629C321.09 577.109 321.506 576.863 322.008 576.891C322.4 576.905 322.742 577.066 323.037 577.373C323.33 577.68 323.477 578.072 323.477 578.55V603.93C323.477 604.394 323.333 604.788 323.046 605.108C322.758 605.429 322.394 605.59 321.953 605.59C321.499 605.59 321.129 605.429 320.84 605.108C320.554 604.788 320.409 604.394 320.409 603.93V583.424L312.638 596.577C312.504 596.781 312.332 596.952 312.123 597.088C311.916 597.225 311.696 597.286 311.462 597.274C311.242 597.286 311.022 597.225 310.802 597.088C310.58 596.952 310.403 596.781 310.269 596.577L302.478 583.213ZM374.311 602.373H385.445C385.861 602.373 386.212 602.527 386.501 602.834C386.789 603.141 386.933 603.527 386.933 603.991C386.933 604.456 386.789 604.838 386.501 605.138C386.212 605.44 385.861 605.59 385.445 605.59H372.732C372.303 605.59 371.948 605.429 371.666 605.108C371.385 604.788 371.244 604.394 371.244 603.93V578.57C371.244 578.106 371.391 577.714 371.684 577.393C371.979 577.073 372.352 576.912 372.805 576.912C373.21 576.912 373.561 577.073 373.861 577.393C374.161 577.714 374.311 578.106 374.311 578.57V602.373ZM56.4099 603.91C56.3976 604.387 56.2384 604.788 55.9322 605.108C55.6261 605.429 55.2708 605.59 54.8667 605.59C54.4014 605.59 54.0308 605.429 53.7553 605.108C53.4796 604.788 53.3418 604.387 53.3418 603.91V578.592C53.3418 578.113 53.4888 577.714 53.7828 577.393C54.0768 577.073 54.4503 576.912 54.9034 576.912C55.3075 576.912 55.6597 577.073 55.9598 577.393C56.2599 577.714 56.4099 578.113 56.4099 578.592V603.91ZM96.9015 603.91C96.8885 604.387 96.7298 604.788 96.4237 605.108C96.1176 605.429 95.7613 605.59 95.358 605.59C94.8915 605.59 94.5223 605.429 94.2469 605.108C93.97 604.788 93.8323 604.387 93.8323 603.91V578.592C93.8323 578.113 93.9797 577.714 94.2744 577.393C94.5676 577.073 94.9417 576.912 95.3936 576.912C95.7985 576.912 96.15 577.073 96.4512 577.393C96.7509 577.714 96.9015 578.113 96.9015 578.592V603.91ZM186.977 606C185.164 606.012 183.572 605.716 182.2 605.108C180.828 604.501 179.512 603.542 178.25 602.231C178.067 602.052 177.919 601.844 177.809 601.606C177.699 601.366 177.644 601.109 177.644 600.837C177.644 600.414 177.788 600.031 178.075 599.69C178.363 599.349 178.71 599.177 179.113 599.177C179.456 599.177 179.769 599.321 180.051 599.609C181.007 600.66 182.041 601.458 183.156 602.005C184.27 602.55 185.519 602.823 186.904 602.823C187.981 602.823 188.954 602.633 189.824 602.251C190.694 601.868 191.385 601.335 191.9 600.652C192.415 599.97 192.671 599.177 192.671 598.276C192.66 597.171 192.378 596.262 191.827 595.553C191.275 594.843 190.514 594.251 189.539 593.781C188.565 593.31 187.441 592.903 186.168 592.562C185.054 592.26 184.026 591.896 183.081 591.466C182.139 591.036 181.321 590.5 180.629 589.857C179.938 589.216 179.401 588.437 179.022 587.522C178.642 586.608 178.452 585.528 178.452 584.286C178.452 582.729 178.82 581.367 179.555 580.199C180.289 579.032 181.309 578.124 182.613 577.476C183.917 576.826 185.409 576.502 187.087 576.502C188.582 576.502 189.999 576.775 191.34 577.322C192.681 577.868 193.756 578.626 194.565 579.596C195.042 580.1 195.28 580.605 195.28 581.111C195.28 581.506 195.13 581.875 194.83 582.216C194.531 582.559 194.184 582.729 193.792 582.729C193.51 582.729 193.266 582.626 193.058 582.422C192.64 581.904 192.111 581.438 191.468 581.03C190.825 580.62 190.123 580.291 189.365 580.045C188.606 579.8 187.846 579.677 187.087 579.677C185.959 579.677 184.971 579.861 184.119 580.23C183.269 580.598 182.603 581.115 182.127 581.777C181.65 582.438 181.41 583.235 181.41 584.163C181.41 585.201 181.68 586.054 182.218 586.724C182.757 587.392 183.48 587.939 184.387 588.362C185.292 588.786 186.291 589.169 187.381 589.51C188.582 589.837 189.689 590.209 190.707 590.626C191.722 591.041 192.602 591.569 193.342 592.203C194.084 592.838 194.655 593.637 195.06 594.599C195.465 595.562 195.666 596.754 195.666 598.175C195.666 599.69 195.284 601.035 194.518 602.209C193.753 603.385 192.718 604.306 191.413 604.976C190.109 605.644 188.63 605.985 186.977 606ZM233.162 606C231.35 606.012 229.758 605.716 228.386 605.108C227.014 604.501 225.697 603.542 224.436 602.231C224.253 602.052 224.105 601.844 223.995 601.606C223.885 601.366 223.83 601.109 223.83 600.837C223.83 600.414 223.974 600.031 224.262 599.69C224.549 599.349 224.896 599.177 225.299 599.177C225.642 599.177 225.955 599.321 226.237 599.609C227.192 600.66 228.227 601.458 229.342 602.005C230.456 602.55 231.705 602.823 233.089 602.823C234.167 602.823 235.14 602.633 236.01 602.251C236.879 601.868 237.573 601.335 238.086 600.652C238.601 599.97 238.859 599.177 238.859 598.276C238.846 597.171 238.564 596.262 238.013 595.553C237.461 594.843 236.7 594.251 235.726 593.781C234.751 593.31 233.629 592.903 232.354 592.562C231.24 592.26 230.211 591.896 229.269 591.466C228.324 591.036 227.508 590.5 226.815 589.857C226.123 589.216 225.587 588.437 225.208 587.522C224.828 586.608 224.638 585.528 224.638 584.286C224.638 582.729 225.006 581.367 225.741 580.199C226.475 579.032 227.495 578.124 228.799 577.476C230.104 576.826 231.595 576.502 233.272 576.502C234.767 576.502 236.185 576.775 237.526 577.322C238.867 577.868 239.942 578.626 240.75 579.596C241.228 580.1 241.466 580.605 241.466 581.111C241.466 581.506 241.317 581.875 241.016 582.216C240.716 582.559 240.37 582.729 239.978 582.729C239.698 582.729 239.451 582.626 239.244 582.422C238.828 581.904 238.298 581.438 237.655 581.03C237.012 580.62 236.311 580.291 235.551 580.045C234.792 579.8 234.032 579.677 233.272 579.677C232.147 579.677 231.157 579.861 230.305 580.23C229.455 580.598 228.791 581.115 228.313 581.777C227.835 582.438 227.596 583.235 227.596 584.163C227.596 585.201 227.866 586.054 228.404 586.724C228.943 587.392 229.666 587.939 230.573 588.362C231.478 588.786 232.477 589.169 233.567 589.51C234.767 589.837 235.875 590.209 236.892 590.626C237.91 591.041 238.787 591.569 239.529 592.203C240.269 592.838 240.843 593.637 241.246 594.599C241.651 595.562 241.852 596.754 241.852 598.175C241.852 599.69 241.47 601.035 240.705 602.209C239.939 603.385 238.904 604.306 237.6 604.976C236.295 605.644 234.816 605.985 233.162 606ZM341.261 606C339.448 606.012 337.856 605.716 336.484 605.108C335.113 604.501 333.796 603.542 332.534 602.231C332.351 602.052 332.204 601.844 332.094 601.606C331.983 601.366 331.928 601.109 331.928 600.837C331.928 600.414 332.073 600.031 332.359 599.69C332.647 599.349 332.994 599.177 333.397 599.177C333.741 599.177 334.053 599.321 334.335 599.609C335.291 600.66 336.326 601.458 337.44 602.005C338.554 602.55 339.803 602.823 341.188 602.823C342.265 602.823 343.238 602.633 344.108 602.251C344.978 601.868 345.669 601.335 346.185 600.652C346.7 599.97 346.955 599.177 346.955 598.276C346.944 597.171 346.662 596.262 346.112 595.553C345.559 594.843 344.798 594.251 343.823 593.781C342.85 593.31 341.727 592.903 340.453 592.562C339.338 592.26 338.31 591.896 337.366 591.466C336.423 591.036 335.605 590.5 334.913 589.857C334.222 589.216 333.686 588.437 333.307 587.522C332.926 586.608 332.737 585.528 332.737 584.286C332.737 582.729 333.104 581.367 333.84 580.199C334.573 579.032 335.594 578.124 336.897 577.476C338.203 576.826 339.693 576.502 341.371 576.502C342.866 576.502 344.283 576.775 345.624 577.322C346.965 577.868 348.041 578.626 348.849 579.596C349.327 580.1 349.565 580.605 349.565 581.111C349.565 581.506 349.416 581.875 349.114 582.216C348.815 582.559 348.468 582.729 348.076 582.729C347.794 582.729 347.55 582.626 347.343 582.422C346.926 581.904 346.397 581.438 345.754 581.03C345.111 580.62 344.409 580.291 343.65 580.045C342.89 579.8 342.131 579.677 341.371 579.677C340.245 579.677 339.256 579.861 338.404 580.23C337.553 580.598 336.889 581.115 336.412 581.777C335.934 582.438 335.694 583.235 335.694 584.163C335.694 585.201 335.965 586.054 336.502 586.724C337.042 587.392 337.764 587.939 338.671 588.362C339.576 588.786 340.576 589.169 341.666 589.51C342.866 589.837 343.974 590.209 344.991 590.626C346.006 591.041 346.886 591.569 347.626 592.203C348.368 592.838 348.941 593.637 349.344 594.599C349.749 595.562 349.95 596.754 349.95 598.175C349.95 599.69 349.568 601.035 348.802 602.209C348.037 603.385 347.002 604.306 345.697 604.976C344.393 605.644 342.914 605.985 341.261 606ZM428.673 576.912C430.474 576.912 432.053 577.291 433.412 578.048C434.773 578.807 435.905 579.854 436.812 581.192C437.717 582.53 438.394 584.064 438.841 585.792C439.288 587.518 439.512 589.339 439.512 591.251C439.512 593.886 439.112 596.289 438.308 598.46C437.507 600.633 436.306 602.363 434.708 603.654C433.109 604.943 431.098 605.59 428.673 605.59H419.506C419.09 605.59 418.737 605.429 418.45 605.108C418.162 604.788 418.017 604.394 418.017 603.93V578.57C418.017 578.106 418.162 577.714 418.45 577.393C418.737 577.073 419.09 576.912 419.506 576.912H428.673ZM421.085 580.087V602.415H428.305C430.204 602.415 431.744 601.909 432.926 600.898C434.109 599.888 434.975 598.536 435.526 596.842C436.077 595.15 436.352 593.284 436.352 591.251C436.352 589.776 436.2 588.365 435.893 587.02C435.587 585.676 435.11 584.484 434.46 583.446C433.811 582.408 432.978 581.589 431.961 580.988C430.945 580.387 429.726 580.087 428.305 580.087H421.085ZM0.457575 457.596C0.457575 457.596 10.6011 457.225 15.4628 457.349C21.5904 457.506 28.1108 457.257 31.948 456.345C31.6369 459.992 31.4035 464.95 31.248 471.219C31.0924 477.488 30.9887 483.985 30.9369 490.71C30.8851 497.435 30.8072 503.846 30.7035 509.943C30.5998 516.041 30.4962 520.8 30.3924 524.22C36.0966 520.345 41.1786 516.411 45.6381 512.422C50.0978 508.433 53.7277 504.671 56.5279 501.139C58.1871 499.201 58.7831 496.922 58.3167 494.3C57.8502 491.678 56.8396 489.227 55.2834 486.948C61.2984 487.404 66.7178 487.376 71.5411 486.864C76.3628 486.351 80.6937 485.865 84.5307 485.41C82.2486 486.891 79.4223 488.886 76.0518 491.393C72.6813 493.901 69.2331 496.55 65.7071 499.344C62.1795 502.136 58.7831 504.872 55.5168 507.55C52.2498 510.228 49.5274 512.536 47.3494 514.474C48.6976 517.437 50.3312 520.601 52.2498 523.964C54.1684 527.326 56.1909 530.602 58.3167 533.793C60.4433 536.986 62.4921 540.005 64.4616 542.855C66.4327 545.705 68.1431 548.098 69.5959 550.035C71.7743 552.999 73.6402 555.65 75.1966 557.987C76.7515 560.322 78.2561 562.288 79.7074 563.885C81.1602 565.479 82.6632 566.734 84.2197 567.646C85.7745 568.558 87.7456 569.013 90.1314 569.013V570.039C87.8493 570.039 85.4376 570.01 82.8964 569.954C80.3552 569.896 77.9193 569.896 75.5854 569.954C73.2514 570.01 71.1508 570.124 69.2849 570.295C67.4175 570.467 65.9663 570.723 64.9281 571.065C60.6765 564.797 57.021 559.438 53.9611 554.994C50.9016 550.548 48.2051 546.646 45.8715 543.283C43.5379 539.92 41.3859 536.899 39.4154 534.221C37.4448 531.543 35.4743 528.836 33.5037 526.1L30.548 528.836C30.6517 532.484 30.7553 536.529 30.8591 540.975C30.9628 545.419 31.0665 549.665 31.1703 553.712C31.2739 557.757 31.4814 561.291 31.7925 564.311C32.1037 567.332 32.5703 569.241 33.1926 570.039H28.5256C26.8662 570.039 25.2327 570.097 23.6252 570.211C22.0177 570.324 17.4239 571.151 14.6633 572.072C9.08397 573.934 0.72595 576.275 2.49551e-05 576.502C0.622293 575.477 12.356 568.977 14.5985 563.731C16.1042 560.208 17.7914 555.65 17.7914 550.122C17.7914 544.594 17.7654 538.496 17.7134 531.828C17.6616 525.159 17.5839 518.436 17.4802 511.653C17.3764 504.872 17.3246 498.289 17.3246 491.906C17.3246 485.524 17.1599 480.753 15.7119 476.582C14.3677 472.711 11.7886 469.157 8.63663 466.884C3.44242 463.137 0.457575 457.596 0.457575 457.596ZM111.232 481.306C110.714 483.927 110.325 487.29 110.064 491.393C109.805 495.497 109.65 499.799 109.598 504.301C109.546 508.803 109.52 513.249 109.52 517.638V529.008L109.131 540.119C108.976 544.565 108.976 548.925 109.131 553.199C109.287 557.474 109.65 561.178 110.22 564.311C110.792 567.446 111.699 569.185 112.942 569.526C108.898 569.526 105.372 569.555 102.365 569.611C99.3569 569.669 96.2456 569.925 93.0306 570.38C93.5488 569.013 93.9894 566.534 94.3522 562.944C94.715 559.354 94.9741 555.193 95.1312 550.463C95.2867 545.734 95.3904 540.719 95.4422 535.418C95.494 530.118 95.52 525.045 95.52 520.202C95.52 515.357 95.4681 510.997 95.3645 507.122C95.2608 503.247 95.1053 500.399 94.8964 498.575C93.0306 496.294 91.2668 494.385 89.6082 492.846C87.9481 491.308 86.0304 489.854 83.852 488.487C88.8292 488.26 93.6007 487.461 98.1648 486.094C102.727 484.725 107.083 483.131 111.232 481.306ZM147.465 486.264C152.133 485.466 156.697 485.209 161.156 485.495C165.615 485.78 169.739 486.92 173.524 488.915C177.309 490.909 180.679 493.787 183.635 497.549C186.591 501.309 188.899 506.21 190.559 512.253C192.218 518.064 192.762 523.821 192.192 529.52C191.622 535.218 190.196 540.518 187.914 545.419C185.632 550.321 182.573 554.651 178.736 558.413C174.899 562.174 170.49 565.082 165.511 567.133C160.534 569.071 155.244 570.124 149.644 570.295C144.043 570.467 138.781 569.555 133.854 567.56C128.927 565.566 124.649 562.489 121.02 558.328C117.39 554.167 115.056 548.724 114.018 542.001C112.878 535.39 112.644 528.979 113.318 522.766C113.992 516.554 115.652 510.941 118.297 505.926C120.942 500.912 124.675 496.693 129.499 493.274C134.32 489.854 140.31 487.519 147.465 486.264ZM129.265 534.819C130.198 540.746 131.909 545.818 134.398 550.035C136.887 554.254 139.765 557.587 143.032 560.038C146.299 562.489 149.825 564.083 153.612 564.825C157.397 565.566 161.052 565.423 164.578 564.397C168.415 563.258 171.242 561.006 173.057 557.643C174.873 554.281 176.039 550.349 176.557 545.847C177.076 541.345 177.127 536.614 176.713 531.657C176.298 526.698 175.78 522.053 175.158 517.723C174.431 513.163 173.031 508.917 170.957 504.986C168.883 501.052 166.394 497.748 163.49 495.07C160.586 492.391 157.449 490.51 154.078 489.428C150.708 488.344 147.413 488.315 144.198 489.341C140.88 490.367 138.053 492.305 135.721 495.154C133.387 498.004 131.572 501.48 130.276 505.583C128.979 509.686 128.227 514.246 128.02 519.261C127.812 524.276 128.227 529.463 129.265 534.819ZM256.986 495.154C257.815 497.206 258.128 501.48 257.919 507.978C257.711 514.474 257.608 522.795 257.608 532.939C257.608 536.701 257.556 540.719 257.452 544.991C257.349 549.266 257.349 553.228 257.452 556.874C257.556 560.522 257.867 563.628 258.387 566.193C258.905 568.757 259.734 570.153 260.875 570.38C257.867 570.496 255.198 570.552 252.864 570.552H246.719C244.748 570.552 242.932 570.61 241.274 570.723C241.585 569.698 241.921 567.731 242.284 564.825C242.647 561.918 242.96 558.499 243.219 554.566C243.478 550.635 243.711 546.416 243.918 541.914C244.126 537.412 244.229 532.997 244.229 528.664C244.333 519.319 243.582 511.909 241.973 506.439C240.367 500.968 238.292 497.036 235.751 494.642C233.209 492.249 230.331 491.08 227.116 491.136C223.901 491.194 220.686 492.021 217.471 493.616C215.709 494.414 214.438 496.037 213.66 498.488C212.883 500.939 212.363 503.96 212.104 507.55C211.845 511.14 211.767 515.129 211.87 519.518C211.974 523.906 211.974 528.323 211.87 532.767C211.767 534.705 211.663 537.555 211.56 541.316C211.456 545.078 211.404 548.925 211.404 552.856C211.404 556.789 211.534 560.379 211.793 563.628C212.052 566.877 212.546 569.013 213.271 570.039C211.197 569.811 209.096 569.698 206.971 569.698C204.844 569.698 202.951 569.811 201.293 570.039C199.321 570.267 197.456 570.496 195.692 570.723C196.106 568.9 196.469 566.335 196.78 563.029C197.091 559.724 197.35 556.049 197.559 552.002C197.767 547.955 197.922 543.682 198.026 539.18C198.129 534.678 198.233 530.261 198.337 525.928C198.544 518.748 198.57 512.422 198.414 506.952C198.259 501.48 197.247 497.663 195.381 495.497C193.41 493.674 191.388 492.191 189.314 491.051C188.172 490.483 187.135 490.026 186.202 489.684C189.106 489.341 192.062 488.942 195.07 488.487C197.663 488.032 200.489 487.461 203.549 486.777C206.608 486.094 209.538 485.182 212.337 484.043L212.65 493.446C213.997 492.762 215.709 491.934 217.782 490.967C219.857 489.997 222.087 489.085 224.471 488.231C226.857 487.376 229.372 486.692 232.017 486.179C234.662 485.666 237.229 485.466 239.717 485.581C244.799 485.923 248.662 486.864 251.307 488.402C253.952 489.941 255.845 492.191 256.986 495.154ZM328.65 495.154C329.479 497.206 329.79 501.48 329.583 507.978C329.376 514.474 329.272 522.795 329.272 532.939C329.272 536.701 329.22 540.719 329.117 544.991C329.013 549.266 329.013 553.228 329.117 556.874C329.22 560.522 329.531 563.628 330.05 566.193C330.568 568.757 331.399 570.153 332.539 570.38C329.531 570.496 326.861 570.552 324.527 570.552H318.382C316.412 570.552 314.597 570.61 312.938 570.723C313.249 569.698 313.586 567.731 313.949 564.825C314.311 561.918 314.622 558.499 314.882 554.566C315.141 550.635 315.374 546.416 315.581 541.914C315.79 537.412 315.894 532.997 315.894 528.664C315.998 519.319 315.244 511.909 313.638 506.439C312.029 500.968 309.956 497.036 307.415 494.642C304.874 492.249 301.996 491.08 298.781 491.136C295.566 491.194 292.351 492.021 289.136 493.616C287.372 494.414 286.102 496.037 285.325 498.488C284.546 500.939 284.027 503.96 283.768 507.55C283.509 511.14 283.431 515.129 283.535 519.518C283.639 523.906 283.639 528.323 283.535 532.767C283.431 534.705 283.328 537.555 283.224 541.316C283.12 545.078 283.069 548.925 283.069 552.856C283.069 556.789 283.198 560.379 283.457 563.628C283.716 566.877 284.209 569.013 284.934 570.039C282.861 569.811 280.761 569.698 278.634 569.698C276.509 569.698 274.616 569.811 272.955 570.039C270.986 570.267 269.118 570.496 267.356 570.723C267.771 568.9 268.134 566.335 268.445 563.029C268.756 559.724 269.015 556.049 269.222 552.002C269.429 547.955 269.585 543.682 269.689 539.18C269.792 534.678 269.896 530.261 270 525.928C270.208 518.748 270.234 512.422 270.079 506.952C269.922 501.48 268.911 497.663 267.045 495.497C265.074 493.674 263.051 492.191 260.978 491.051C259.836 490.483 258.8 490.026 257.865 489.684C260.769 489.341 263.725 488.942 266.733 488.487C269.326 488.032 272.152 487.461 275.212 486.777C278.271 486.094 281.201 485.182 284.001 484.043L284.312 493.446C285.662 492.762 287.372 491.934 289.447 490.967C291.521 489.997 293.75 489.085 296.136 488.231C298.522 487.376 301.037 486.692 303.682 486.179C306.325 485.666 308.892 485.466 311.382 485.581C316.464 485.923 320.327 486.864 322.972 488.402C325.617 489.941 327.508 492.191 328.65 495.154ZM408.089 462.5C411.511 461.816 414.726 461.018 417.734 460.106C420.327 459.308 422.946 458.425 425.591 457.456C428.236 456.487 430.335 455.49 431.891 454.464C431.373 458.454 431.036 462.614 430.879 466.945C430.724 471.276 430.62 475.835 430.568 480.623C430.516 485.41 430.49 490.483 430.49 495.839C430.49 501.195 430.439 506.952 430.335 513.107C430.231 519.147 430.128 525.045 430.024 530.803C429.92 536.558 429.894 541.914 429.946 546.873C429.998 551.83 430.179 556.247 430.49 560.123C430.801 563.998 431.321 567.133 432.047 569.526C429.972 569.412 428.132 569.328 426.524 569.27C424.915 569.212 423.412 569.212 422.013 569.27C420.612 569.328 419.213 569.441 417.812 569.611C416.412 569.783 414.882 570.039 413.223 570.38C413.949 569.127 414.571 566.021 415.089 561.064C415.607 556.105 416.075 550.178 416.49 543.283C416.905 536.386 417.19 529.035 417.345 521.228C417.501 513.421 417.578 506.069 417.578 499.172C417.578 492.278 417.449 486.322 417.19 481.306C416.931 476.291 416.594 473.157 416.179 471.903C415.556 470.307 414.778 468.911 413.845 467.714C412.912 466.518 412.03 465.52 411.2 464.723C410.164 463.811 409.126 463.07 408.089 462.5ZM464.828 477.645C464.31 480.267 458.52 486.539 458.259 490.641C458 494.746 457.844 499.048 457.793 503.55C457.741 508.052 457.715 512.498 457.715 516.886V528.254L457.326 539.368C457.171 543.814 457.171 548.173 457.326 552.448C457.482 556.722 457.844 560.426 458.416 563.56C458.986 566.695 468.754 573.7 470 574.043C465.956 574.043 456.35 569.239 450.559 568.86C446.849 568.618 444.44 569.174 441.225 569.629C441.744 568.262 442.184 565.783 442.547 562.192C442.91 558.602 443.171 554.442 443.326 549.712C443.481 544.982 443.585 539.967 443.637 534.667C443.689 529.367 443.715 524.294 443.715 519.451C443.715 514.606 443.663 510.246 443.559 506.371C443.456 502.495 443.3 499.647 443.091 497.824C441.225 495.543 439.462 493.634 437.803 492.095C436.143 490.557 434.225 489.103 432.047 487.736C437.024 487.508 441.795 486.71 446.36 485.343C450.922 483.974 460.681 479.469 464.828 477.645ZM329.305 407.695C325.194 405.581 321.331 403.366 317.71 401.059C310.761 396.635 304.72 391.879 299.552 386.873C299.579 386.143 299.599 385.415 299.612 384.688C305.097 390.209 310.622 394.706 315.724 397.56C322.672 401.447 329.078 402.362 334.131 400.252C334.792 399.975 335.432 399.647 336.044 399.267C337.43 398.408 338.294 396.911 338.344 395.281C338.355 394.886 338.365 394.492 338.373 394.099C338.577 383.669 337.323 373.537 335.006 364.013C341.219 367.563 347.203 370.217 352.472 371.583C353.504 371.85 354.513 372.068 355.496 372.237C362.71 373.477 368.57 372.079 372.296 368.155C373.357 367.038 373.786 365.464 373.442 363.963C372.781 361.09 372.011 358.268 371.145 355.503C368.659 347.572 365.372 340.105 361.527 333.207C369.219 335.307 376.427 336.472 382.395 336.379C390.206 336.258 396.144 333.934 399.56 329.772C399.63 330.081 399.699 330.392 399.769 330.703C402.103 341.143 404.118 352.694 405.776 365.403C405.967 366.862 406.152 368.482 406.341 370.233C407.564 381.504 408.98 398.24 413.27 412.989C415.267 419.855 417.915 426.282 421.359 431.693C400.119 429.686 381.412 426.208 365.091 421.552C351.547 417.688 339.646 413.014 329.305 407.695ZM59.1103 104.536C57.8745 93.2636 56.4764 76.2739 52.1244 61.323C50.1258 54.4588 47.4777 48.0316 44.033 42.6212C67.607 44.8442 88.0647 48.8804 105.601 54.3287C117.92 58.1572 128.797 62.681 138.305 67.7627C141.596 69.5217 144.723 71.3492 147.687 73.2364C159.669 80.8626 168.955 89.4767 175.718 98.6578C175.709 98.8456 175.697 99.0334 175.688 99.2213C170.378 93.4569 164.99 88.7237 159.966 85.6663C152.274 80.9854 145.136 80.1294 139.72 83.2175C138.305 84.0247 137.386 85.4893 137.278 87.1164C136.568 97.7278 137.393 108.101 139.348 117.89C133.407 114.232 127.66 111.449 122.557 109.925C114.044 107.382 107.015 108.323 102.619 112.625C101.519 113.701 101.032 115.259 101.322 116.771C103.49 128.07 107.329 138.641 112.23 148.192C104.514 145.759 97.2497 144.297 91.2068 144.169C82.0834 143.977 75.4023 146.882 72.2246 152.341C71.3581 153.829 71.2965 155.653 72.0594 157.197C77.1515 167.512 83.6544 176.685 90.9104 184.6C86.6702 184.462 82.6276 184.552 78.9056 184.892C73.7292 173.628 69.2072 159.716 65.4966 142.966C63.2226 132.695 61.2531 121.358 59.627 108.908C59.4521 107.577 59.2836 106.113 59.1103 104.536ZM404.453 137.952C401.968 143.003 399.336 147.698 396.572 152.045C390.454 161.666 383.7 169.548 376.527 175.785C376.174 175.782 375.819 175.781 375.466 175.781C380.864 170.211 385.241 164.623 387.994 159.484C392.244 151.545 392.707 144.371 389.329 139.133C388.444 137.763 386.932 136.927 385.301 136.908C374.572 136.78 364.172 138.199 354.43 140.731C357.859 134.465 360.395 128.443 361.662 123.159C363.733 114.519 362.408 107.552 357.872 103.398C356.736 102.358 355.154 101.957 353.661 102.331C342.521 105.11 332.197 109.511 322.944 114.914C324.92 107.147 325.962 99.8822 325.759 93.8885C325.451 84.767 322.185 78.2567 316.558 75.3818C315.026 74.598 313.2 74.6359 311.701 75.4829C301.703 81.1245 292.916 88.1042 285.422 95.7666C285.318 91.418 284.985 87.2952 284.408 83.5281C296.688 77.8161 312.159 72.8914 331.072 68.96C340.193 67.0639 350.117 65.4006 360.868 63.9902C363.667 63.6236 367.054 63.2769 370.831 62.8778C381.7 61.7293 395.804 60.1563 408.447 56.4705C415.311 54.4678 421.736 51.8168 427.144 48.3711C425.155 69.5433 421.704 88.2017 417.081 104.491C413.521 117.027 409.268 128.159 404.453 137.952ZM98.7382 410.893C87.4897 412.095 71.2512 413.549 56.8946 417.728C50.0293 419.726 43.6032 422.374 38.1926 425.818C40.5139 401.231 44.8056 380.035 50.6146 362.006C51.4717 359.345 52.3619 356.754 53.2838 354.23C57.7692 341.952 63.0023 331.289 68.8152 322.158C73.1786 315.302 77.8658 309.33 82.796 304.207C86.0013 304.573 89.1904 304.806 92.3454 304.916C86.6572 310.348 82.0024 315.843 79.0287 320.938C74.4905 328.715 73.7649 335.868 76.9507 341.226C77.7848 342.628 79.2652 343.518 80.8945 343.597C91.6328 344.119 102.097 343.076 111.943 340.893C108.391 346.907 105.709 352.708 104.277 357.845C101.892 366.403 102.961 373.415 107.342 377.731C108.44 378.812 110.004 379.27 111.512 378.952C122.694 376.593 133.128 372.599 142.538 367.57C140.263 375.295 138.946 382.55 138.928 388.57C138.91 394.757 140.297 399.796 142.909 403.358C134.126 405.44 124.518 407.288 114.057 408.878C110.939 409.351 107.745 409.802 104.477 410.229C102.768 410.452 100.84 410.668 98.7382 410.893ZM187.556 471.169C183.242 472.182 171.551 471.185 171.679 470.735C171.779 470.381 183.05 470.119 186.653 469.232C192.961 467.678 198.62 465.243 201.11 464.612C207.747 462.929 215.021 461.784 222.648 461.668C230.258 461.53 236.377 461.474 243.356 459.658C247.704 458.526 252.276 456.6 257.783 453.514C249.804 452.08 242.561 450.037 236.379 447.662C232.514 447.98 228.932 448.545 225.479 449.31C214.993 451.635 205.928 455.278 194.437 457.846C182.989 460.853 173.258 461.204 164.352 460.439C148.832 459.105 135.916 454.153 120.935 453.362C115.743 453.105 111.01 452.568 106.7 451.817C101.113 453.981 96.4966 455.512 91.6765 455.452C75.906 455.258 67.1907 452.809 61.096 450.75C57.3805 449.495 55.0212 448.127 53.4895 446.912C51.1677 445.07 49.9499 440.968 50.5573 440.842C51.1326 440.724 52.6094 443.647 54.8249 445.19C56.8234 446.581 60.2052 448.174 66.1461 449.465C72.1776 450.776 79.1421 452.089 91.2975 452.153C95.2219 452.174 97.9948 451.465 100.551 450.539C93.9311 448.927 88.4826 446.792 84.0302 444.456C75.7149 440.093 70.5628 435.262 68.1917 431.582C66.7793 429.39 65.4237 425.095 65.9922 425.06C66.5089 425.029 68.8055 429.349 70.6973 431.138C74.4467 434.684 80.3649 440.347 90.9412 444.319C95.2835 445.95 100.348 447.352 106.244 448.324C113.25 445.378 121.259 441.455 128.216 439.276L128.357 439.232C123.579 437.036 116.867 431.113 109.282 422.845C107.279 420.661 105.191 418.316 103.035 415.852C103.782 415.765 104.496 415.677 105.176 415.589C110.725 414.864 116.057 414.07 121.177 413.212C130.154 418.45 137.504 421.842 141.694 422.938C144.453 423.657 147.078 424.205 149.581 424.609C150.097 424.302 150.624 423.992 151.155 423.682C160.144 418.44 170.357 412.519 181.797 410.578C184.281 418.306 188.664 423.223 194.322 424.607C195.906 424.995 197.579 424.562 198.777 423.455C202.055 420.424 205.108 417.238 207.941 413.935C214.08 416.656 220.498 420.922 227.197 427.215C228.344 428.272 229.8 429.312 231.531 430.309C232.34 430.641 233.182 430.971 234.056 431.295C241.904 430.248 250.776 429.71 261.333 429.895C268.759 430.024 276.943 430.422 286.203 431.531C290.35 432.028 294.694 432.676 299.254 433.508C305.206 431.769 311.208 429.488 317.182 426.65C317.771 426.249 318.385 425.852 319.023 425.46C321.394 421.005 323.877 416.621 326.469 412.311C336.969 417.741 349.042 422.531 362.778 426.502C356.262 439.913 346.419 455.243 330.513 456.948C329.347 457.299 328.195 457.609 327.124 457.981C308.999 464.285 297.318 463.824 287.796 462.837C280.573 462.088 275.021 460.348 267.701 463.313C258.447 467.01 251.417 468.812 245.031 469.369C237.143 470.057 230.503 469.076 222.239 467.824C213.076 466.464 209.059 467.064 201.228 468.13C197.444 468.645 193.994 469.659 187.556 471.169ZM213.189 435.666C210.027 433.835 207.075 432.793 204.153 432.366C198.437 431.531 192.943 432.694 186.816 433.918C176.941 435.889 165.706 438.192 150.614 435.691C148.646 436.667 146.73 437.53 144.867 438.246C154.303 440.062 162.922 444.657 172.189 446.076C176.454 446.73 180.856 446.57 185.564 445.027C195.195 441.569 203.732 438.348 213.189 435.666ZM201.203 448.074C196.714 449.081 192.189 450.193 187.394 451.28C181.607 452.775 176.31 452.593 171.211 451.553C160.089 449.285 150.053 442.57 138.107 441.859C135.611 441.721 132.628 442.277 129.393 443.205C124.298 444.667 118.632 446.989 113.174 449.219C115.678 449.459 118.31 449.624 121.078 449.703C136.071 450.074 149.111 454.869 164.669 455.554C173.015 455.922 182.08 454.983 192.605 451.584C195.624 450.443 198.465 449.264 201.203 448.074ZM126.674 427.389C128.924 429.121 130.895 430.273 132.545 430.682C132.893 430.768 133.245 430.832 133.598 430.874C131.557 429.947 129.231 428.781 126.674 427.389ZM185.443 421.842C181.326 422.129 177.375 423.091 173.587 424.429C177.401 423.773 180.906 422.92 184.236 422.127C184.641 422.03 185.043 421.935 185.443 421.842ZM78.7777 223.667C72.0367 225.342 66.0554 227.485 61.4086 230.05C53.6315 234.343 49.3777 240.018 49.3673 246.168C49.3649 247.708 50.1345 249.147 51.4171 250C60.9713 256.35 71.1718 261.009 81.3918 264.202C74.2508 268.003 68.122 272.161 63.7976 276.382C63.0104 277.151 62.2816 277.926 61.6078 278.705C60.8304 278.755 60.0627 278.783 59.3079 278.787L59.1589 278.787C59.0099 278.788 58.8625 278.787 58.7151 278.785L58.5677 278.784C52.6348 278.696 47.4518 277.114 43.1853 273.616C24.7259 258.483 20.67 243.507 19.0228 226.874C18.2926 219.503 18.0359 211.804 17.2071 203.622C16.3257 194.921 14.0905 184.675 12.1475 176.844C8.2118 169.763 4.17791 160.39 0.501957 147.28C-0.0654049 145.257 -0.122095 143.792 0.183208 142.476C0.472153 141.23 1.1699 139.909 2.33394 139.382C21.1157 130.879 38.4363 120.547 54.1245 108.475C54.172 108.863 54.2196 109.24 54.2677 109.609C56.031 123.1 58.1984 135.314 60.7186 146.305C56.3885 149.266 51.9724 152.113 47.474 154.843C45.7072 155.915 44.2653 156.77 43.6388 158.182C43.0123 159.593 43.2297 161.631 43.7149 163.309C46.9147 174.375 48.3518 181.613 48.4989 186.983C52.4939 208.748 54.4556 221.578 74.5909 220.809C75.9741 221.796 77.3702 222.749 78.7777 223.667ZM417.193 228.246C417.028 204.884 419.687 181.496 425.181 158.604C425.766 156.169 425.78 154.316 425.063 152.539C424.344 150.762 422.907 149.092 420.868 147.942C416.861 145.682 412.912 143.329 409.027 140.888C413.858 131.146 418.152 120.103 421.773 107.694C433.372 115.429 445.647 122.238 458.496 128.024C462.19 129.688 464.116 132.007 465.216 134.916C466.315 137.824 466.521 141.207 465.096 145.474C446.408 201.442 447.712 262.209 468.829 317.356C470.175 320.869 470.408 324.055 469.278 326.654C468.147 329.254 465.682 331.159 462.044 332.952C443.754 341.967 426.738 353.08 411.296 365.984C411.242 365.544 411.189 365.117 411.136 364.704C409.331 350.877 407.101 338.392 404.503 327.19C411.61 322.028 418.967 317.18 426.551 312.664C427.628 312.023 428.835 311.474 429.162 310.43C429.488 309.387 428.926 307.858 428.506 306.403C422.428 285.307 418.795 263.676 417.612 241.932C419.7 239.045 420.735 235.94 420.623 232.75C420.57 231.211 419.749 229.801 418.435 228.996C418.022 228.743 417.608 228.493 417.193 228.246ZM108.743 49.6605C116.582 37.7164 123.46 24.9398 129.311 11.3667C130.376 8.89448 132.613 4.98293 134.761 4.34184C136.91 3.70075 140.872 3.10119 144.158 4.24432C201.148 24.0422 263.335 22.9768 319.613 1.23935C322.897 -0.0283804 326.145 -0.492507 328.618 0.656036C331.093 1.80638 332.69 4.54592 334.457 8.13602C343.261 26.036 354.075 42.7133 366.608 57.8936C364.229 58.1446 362.06 58.383 360.165 58.6322C348.332 60.1834 337.484 62.0453 327.58 64.1835C323.36 58.2873 319.355 52.2213 315.576 46C314.478 44.1905 313.27 42.7711 311.542 42.2058C309.815 41.6406 307.595 41.9494 305.212 42.6104C258.144 55.6687 208.515 56.606 160.994 45.3427C158.293 44.7034 155.756 45.2993 153.835 46.0054C151.914 46.7115 150.641 47.5043 149.47 49.5793C146.858 54.2078 144.122 58.7568 141.268 63.2209C131.787 58.1193 120.968 53.5522 108.743 49.6605ZM46.7471 356.532C46.427 356.057 46.1101 355.582 45.7963 355.105C44.4747 354.126 43.173 353.222 41.8925 352.4C36.0006 348.615 31.5012 345.088 26.9017 346.107C20.3135 347.566 17.6333 353.172 16.1322 354.294C14.4942 355.518 17.6271 348.134 21.1179 345.737C27.5594 341.312 33.7993 342.94 40.296 346.013C33.1249 333.001 28.7646 319.291 28.4245 305.46C28.1803 295.531 33.7865 283.983 35.5438 282.164C38.3178 279.292 31.638 294.744 32.3382 304.761C33.4245 320.303 39.6665 335.462 49.3071 349.456C48.4273 351.757 47.5736 354.116 46.7471 356.532ZM179.202 391.523C176.951 392.53 174.599 393.512 172.142 394.467C174.599 392.474 176.953 390.404 179.201 388.273C179.186 389.371 179.186 390.455 179.202 391.523ZM389.27 295.832C391.379 301.066 393.365 306.79 395.211 313.02C391.049 306.858 386.384 301.23 381.407 296.164C384.125 296.146 386.757 296.037 389.27 295.832ZM235.119 154.462C247.276 154.462 259.313 156.857 270.545 161.509C281.778 166.162 291.983 172.982 300.578 181.579C309.176 190.176 315.994 200.382 320.646 211.615C325.299 222.847 327.693 234.886 327.693 247.044C327.693 259.202 325.299 271.242 320.646 282.474C315.994 293.707 309.176 303.913 300.578 312.51C291.983 321.107 281.778 327.927 270.545 332.579C259.313 337.232 247.276 339.627 235.119 339.627C222.962 339.627 210.923 337.232 199.692 332.579C188.46 327.927 178.255 321.107 169.658 312.51C161.062 303.913 154.243 293.707 149.59 282.474C144.939 271.242 142.543 259.202 142.543 247.044C142.543 234.886 144.939 222.847 149.59 211.615C154.243 200.382 161.062 190.176 169.658 181.579C178.255 172.982 188.46 166.162 199.692 161.509C210.923 156.857 222.962 154.462 235.119 154.462ZM242.568 169.162C237.534 168.673 232.466 168.673 227.432 169.162L223.87 180.175C219.549 180.895 215.307 182.031 211.206 183.569L202.616 175.812C198.011 177.905 193.622 180.44 189.508 183.38L191.929 194.699C188.548 197.483 185.443 200.588 182.659 203.971L171.34 201.549C168.401 205.664 165.866 210.054 163.773 214.657L171.53 223.249C169.991 227.351 168.856 231.593 168.137 235.914L157.123 239.477C156.634 244.51 156.634 249.579 157.123 254.612L168.137 258.174C168.856 262.496 169.991 266.738 171.53 270.84L163.773 279.432C165.866 284.035 168.401 288.425 171.34 292.54L182.659 290.118C185.443 293.501 188.548 296.606 191.929 299.39L189.508 310.709C193.622 313.649 198.011 316.184 202.616 318.277L211.206 310.52C215.307 312.057 219.549 313.194 223.87 313.913L227.432 324.927C232.466 325.416 237.534 325.416 242.568 324.927L246.129 313.913C250.45 313.194 254.692 312.057 258.793 310.52L267.384 318.277C271.988 316.184 276.378 313.649 280.492 310.709L278.07 299.39C281.452 296.606 284.557 293.501 287.341 290.118L298.659 292.54C301.599 288.425 304.134 284.035 306.226 279.432L298.47 270.84C300.008 266.738 301.144 262.496 301.863 258.174L312.876 254.612C313.366 249.579 313.366 244.51 312.876 239.477L301.863 235.914C301.144 231.593 300.008 227.351 298.47 223.249L306.226 214.657C304.134 210.054 301.599 205.664 298.659 201.549L287.341 203.971C284.557 200.588 281.452 197.483 278.07 194.699L280.492 183.38C276.378 180.44 271.988 177.905 267.384 175.812L258.793 183.569C254.692 182.031 250.45 180.895 246.129 180.175L242.568 169.162ZM235.119 192.455C265.244 192.455 289.704 216.916 289.704 247.044C289.704 277.173 265.244 301.634 235.119 301.634C204.992 301.634 180.534 277.173 180.534 247.044C180.534 216.916 204.992 192.455 235.119 192.455ZM259.112 580.056L259.122 591.988V603.93C259.122 604.394 258.971 604.788 258.672 605.108C258.372 605.429 257.995 605.59 257.541 605.59C257.089 605.59 256.718 605.429 256.43 605.108C256.142 604.788 255.999 604.394 255.999 603.93V580.045H249.017C248.601 580.045 248.249 579.899 247.961 579.605C247.673 579.312 247.529 578.933 247.529 578.469C247.529 578.005 247.673 577.629 247.961 577.342C248.249 577.055 248.601 576.912 249.017 576.912H266.103C266.519 576.912 266.872 577.058 267.159 577.353C267.447 577.645 267.591 578.025 267.591 578.489C267.591 578.967 267.447 579.347 267.159 579.626C266.917 579.861 266.629 579.998 266.294 580.035C266.232 580.042 266.169 580.045 266.103 580.045L259.112 580.056Z" fill="#858E00"/>
</svg>
