<svg width="124" height="112" viewBox="0 0 124 112" fill="none" xmlns="http://www.w3.org/2000/svg">
<path fill-rule="evenodd" clip-rule="evenodd" d="M0 81.6838V8.23092C0 3.73144 3.65644 0.0782471 8.16305 0.0782471H115.826C120.332 0.0782471 123.993 3.73144 123.993 8.23092V81.6838C123.993 86.1836 120.332 89.8368 115.826 89.8368L103.073 89.8387L108.438 99.8653C109.855 102.517 108.847 105.819 106.194 107.234L100.2 110.43C97.5434 111.845 94.2372 110.842 92.8163 108.191L85.6884 94.8557L74.8844 100.613C74.2546 100.95 73.495 100.935 72.8771 100.574C72.2591 100.213 71.8734 99.5582 71.8616 98.8447L71.6727 89.8368H8.16305C3.65644 89.8368 0 86.1836 0 81.6838ZM119.88 23.5517V8.23092C119.88 5.99773 118.061 4.18507 115.826 4.18507H8.16305C5.92746 4.18507 4.11304 5.99773 4.11304 8.23092V23.5517H119.88ZM102.802 85.7318L115.826 85.73C118.061 85.73 119.88 83.917 119.88 81.6838V27.6581H4.11304V81.6838C4.11304 83.917 5.92746 85.73 8.16305 85.73H71.59L70.8973 52.3292C70.8816 51.5561 71.3027 50.8396 71.9876 50.4753C72.6685 50.1112 73.4989 50.1611 74.1326 50.6043L112.315 77.2787C112.901 77.6881 113.232 78.3715 113.189 79.0843C113.145 79.7968 112.736 80.4359 112.106 80.7724L102.802 85.7318ZM88.3452 91.1099L96.4452 106.257C96.7955 106.908 97.6102 107.155 98.2636 106.807L104.258 103.612C104.907 103.263 105.155 102.452 104.809 101.8L96.7089 86.6532C96.1697 85.6526 96.5515 84.4089 97.5512 83.8746L107.214 78.7255L75.093 56.2877L75.9038 95.4153L85.5625 90.2659C86.5661 89.7316 87.8099 90.1097 88.3452 91.1099ZM18.6522 10.9508C20.9665 10.9508 22.844 12.826 22.844 15.1357C22.844 17.4455 20.9665 19.3206 18.6522 19.3206C16.3379 19.3206 14.4605 17.4455 14.4605 15.1357C14.4605 12.826 16.3379 10.9508 18.6522 10.9508ZM33.7267 10.9508C36.041 10.9508 37.9184 12.826 37.9184 15.1357C37.9184 17.4455 36.041 19.3206 33.7267 19.3206C31.4124 19.3206 29.535 17.4455 29.535 15.1357C29.535 12.826 31.4124 10.9508 33.7267 10.9508ZM48.8091 10.9508C51.1194 10.9508 53.0008 12.826 53.0008 15.1357C53.0008 17.4455 51.1194 19.3206 48.8091 19.3206C46.4947 19.3206 44.6134 17.4455 44.6134 15.1357C44.6134 12.826 46.4947 10.9508 48.8091 10.9508ZM63.6317 61.2906C64.6314 60.757 65.879 61.1351 66.4143 62.1346C66.9496 63.1345 66.5678 64.3793 65.5681 64.9133L58.2906 68.7925C57.287 69.3265 56.0432 68.9483 55.508 67.9485C54.9727 66.9486 55.3505 65.7038 56.3542 65.1702L63.6317 61.2906ZM63.2774 51.3624C64.3598 51.6919 64.9738 52.8397 64.6471 53.9239C64.3165 55.0082 63.1672 55.621 62.0809 55.2915L54.1855 52.8973C53.0992 52.5679 52.4852 51.4201 52.8158 50.3358C53.1464 49.2512 54.2957 48.6384 55.382 48.9679L63.2774 51.3624ZM87.5501 53.1959C86.5464 53.7299 85.2987 53.3517 84.7635 52.3519C84.2321 51.3524 84.61 50.1072 85.6097 49.5736L92.8872 45.6939C93.8908 45.1604 95.1385 45.5385 95.6699 46.5383C96.2051 47.5378 95.8273 48.7827 94.8276 49.3166L87.5501 53.1959ZM71.5349 45.3039C72.0702 46.3037 71.6923 47.5486 70.6887 48.0826C69.689 48.6161 68.4413 48.238 67.906 47.2385L64.0213 39.9726C63.486 38.9732 63.8639 37.7283 64.8675 37.1943C65.8672 36.6604 67.1149 37.0389 67.6502 38.0384L71.5349 45.3039ZM81.4809 44.9499C81.1503 46.0342 80.001 46.6469 78.9147 46.3175C77.8284 45.988 77.2144 44.8402 77.545 43.756L79.942 35.8755C80.2726 34.7912 81.4219 34.1781 82.5082 34.5075C83.5945 34.837 84.2085 35.9848 83.8779 37.069L81.4809 44.9499Z" fill="#858F38"/>
</svg>
