<?xml version="1.0" encoding="UTF-8" standalone="no"?>
<!DOCTYPE svg PUBLIC "-//W3C//DTD SVG 1.1//EN" "http://www.w3.org/Graphics/SVG/1.1/DTD/svg11.dtd">
<svg width="100%" height="100%" viewBox="0 0 12692 11380" version="1.1" xmlns="http://www.w3.org/2000/svg" xmlns:xlink="http://www.w3.org/1999/xlink" xml:space="preserve" xmlns:serif="http://www.serif.com/" style="fill-rule:evenodd;clip-rule:evenodd;stroke-linejoin:round;stroke-miterlimit:2;">
    <g transform="matrix(6.94444,0,0,6.94444,-3140.43,-1915.64)">
        <g transform="matrix(1,0,0,1,-713.781,-24.4932)">
            <g transform="matrix(1.05253,0,0,0.995964,-75.2746,492.486)">
                <path d="M1536.16,629.709L1370.34,629.709C1361.78,629.709 1354.82,622.359 1354.82,613.305L1354.82,415.759C1354.82,406.706 1361.78,399.355 1370.34,399.355L1643.88,399.355C1652.45,399.355 1659.4,406.706 1659.4,415.759L1659.4,613.305C1659.4,622.359 1652.45,629.709 1643.88,629.709L1604.98,629.716" style="fill:rgb(235,235,235);fill-opacity:0;"/>
            </g>
            <g transform="matrix(5.80116,0,0,5.48937,-6663.21,-1861.55)">
                <path d="M1349.6,613.305L1349.6,415.759C1349.6,403.658 1358.89,393.833 1370.34,393.833L1643.88,393.833C1655.33,393.833 1664.63,403.658 1664.63,415.759L1664.63,613.305C1664.63,625.407 1655.33,635.232 1643.88,635.232L1611.48,635.237L1625.11,662.203C1628.71,669.334 1626.15,678.214 1619.41,682.021L1604.18,690.615C1597.43,694.422 1589.03,691.724 1585.42,684.594L1567.31,648.73L1539.86,664.215C1538.26,665.119 1536.33,665.079 1534.76,664.109C1533.19,663.138 1532.21,661.377 1532.18,659.458L1531.7,635.232L1370.34,635.232C1358.89,635.232 1349.6,625.407 1349.6,613.305ZM1654.18,456.963L1654.18,415.759C1654.18,409.753 1649.56,404.878 1643.88,404.878L1370.34,404.878C1364.66,404.878 1360.05,409.753 1360.05,415.759L1360.05,456.963L1654.18,456.963ZM1610.79,624.192L1643.88,624.187C1649.56,624.187 1654.18,619.311 1654.18,613.305L1654.18,468.007L1360.05,468.007L1360.05,613.305C1360.05,619.311 1364.66,624.187 1370.34,624.187L1531.49,624.187L1529.73,534.358C1529.69,532.279 1530.76,530.352 1532.5,529.372C1534.23,528.393 1536.34,528.527 1537.95,529.719L1634.96,601.458C1636.45,602.559 1637.29,604.397 1637.18,606.314C1637.07,608.23 1636.03,609.949 1634.43,610.854L1610.79,624.192ZM1574.06,638.656L1594.64,679.392C1595.53,681.145 1597.6,681.808 1599.26,680.872L1614.49,672.278C1616.14,671.342 1616.77,669.159 1615.89,667.405L1595.31,626.67C1593.94,623.979 1594.91,620.634 1597.45,619.197L1622,605.349L1540.39,545.004C1540.39,545.004 1542.45,650.235 1542.45,650.235L1566.99,636.386C1569.54,634.949 1572.7,635.966 1574.06,638.656ZM1396.99,423.074C1402.87,423.074 1407.64,428.117 1407.64,434.329C1407.64,440.541 1402.87,445.584 1396.99,445.584C1391.11,445.584 1386.34,440.541 1386.34,434.329C1386.34,428.117 1391.11,423.074 1396.99,423.074ZM1435.29,423.074C1441.17,423.074 1445.94,428.117 1445.94,434.329C1445.94,440.541 1441.17,445.584 1435.29,445.584C1429.41,445.584 1424.64,440.541 1424.64,434.329C1424.64,428.117 1429.41,423.074 1435.29,423.074ZM1473.61,423.074C1479.48,423.074 1484.26,428.117 1484.26,434.329C1484.26,440.541 1479.48,445.584 1473.61,445.584C1467.73,445.584 1462.95,440.541 1462.95,434.329C1462.95,428.117 1467.73,423.074 1473.61,423.074ZM1511.27,558.459C1513.81,557.024 1516.98,558.041 1518.34,560.729C1519.7,563.418 1518.73,566.766 1516.19,568.202L1497.7,578.635C1495.15,580.071 1491.99,579.054 1490.63,576.365C1489.27,573.676 1490.23,570.328 1492.78,568.893L1511.27,558.459ZM1510.37,531.758C1513.12,532.644 1514.68,535.731 1513.85,538.647C1513.01,541.563 1510.09,543.211 1507.33,542.325L1487.27,535.886C1484.51,535 1482.95,531.913 1483.79,528.997C1484.63,526.08 1487.55,524.432 1490.31,525.318L1510.37,531.758ZM1572.04,536.689C1569.49,538.125 1566.32,537.108 1564.96,534.419C1563.61,531.731 1564.57,528.382 1567.11,526.947L1585.6,516.513C1588.15,515.078 1591.32,516.095 1592.67,518.784C1594.03,521.472 1593.07,524.82 1590.53,526.256L1572.04,536.689ZM1531.35,515.464C1532.71,518.153 1531.75,521.501 1529.2,522.937C1526.66,524.372 1523.49,523.355 1522.13,520.667L1512.26,501.126C1510.9,498.438 1511.86,495.09 1514.41,493.654C1516.95,492.218 1520.12,493.236 1521.48,495.924L1531.35,515.464ZM1556.62,514.512C1555.78,517.428 1552.86,519.076 1550.1,518.19C1547.34,517.304 1545.78,514.217 1546.62,511.301L1552.71,490.107C1553.55,487.191 1556.47,485.542 1559.23,486.428C1561.99,487.314 1563.55,490.401 1562.71,493.317L1556.62,514.512Z" style="fill:rgb(133,143,56);"/>
            </g>
        </g>
    </g>
</svg>
